<svg width="490" height="451" viewBox="0 0 490 451" fill="none" xmlns="http://www.w3.org/2000/svg">
<path d="M441.807 148.457C431.163 154.45 421.012 154.676 411.03 147.566C401.199 140.563 396.595 125.541 402.06 115.209C408.002 103.974 419.451 98.4428 432.458 100.086C449.728 102.268 460.067 124.587 449.916 138.792C447.528 142.133 444.7 145.159 441.807 148.457ZM417.878 120.945C413.898 121.361 409.94 123.957 410.166 126.116C410.636 130.608 412.071 134.535 415.469 137.896C423.6 145.937 434.736 145.222 441.543 135.91C442.675 134.36 444.433 132.998 444.892 131.28C445.943 127.343 443.552 125.029 437.711 123.539C432.302 117.444 426.581 116.688 417.878 120.945Z" fill="#FEE2E2"/>
<path d="M439.246 178.374C451.319 179.231 458.047 186.473 461.775 196.671C466.12 208.556 459.625 224.613 444.448 230.289C426.622 236.956 411.244 220.704 410.163 206.051C408.891 188.819 423.996 177.151 439.246 178.374ZM441.743 218.535C442.09 216.757 435.653 217.669 436 215.891C434.826 217.075 446.703 196.648 446.224 197.912C446.033 198.419 425.915 213.999 424.828 214C417.604 209.731 428.58 194.948 422.308 200.097C415.659 205.555 416.666 213.349 424.828 215.891C430.229 217.574 436.063 218.283 441.743 218.535C447.331 218.782 449.911 216.529 451.187 212.176C452.818 206.613 446.487 222.663 441.743 218.535Z" fill="#FEE2E2"/>
<path d="M314.738 12.3348C322.633 4.43818 332.022 2.58175 342.074 5.36829C352.75 8.32747 357.622 16.5421 360.333 26.9126C363.031 37.2336 353.646 50.1287 344.017 52.8176C337.983 54.5026 331.954 56.2911 325.545 54.2471C315.912 51.1745 311.652 43.3432 308.64 34.7895C305.656 26.3144 309.066 19.0363 314.738 12.3348ZM323.753 25.3612C323.753 25.3612 323.7 25.3424 323.133 25.2706C321.696 26.8415 320.258 28.4123 318.446 30.483C318.755 32.1556 318.621 34.0971 319.446 35.4557C323.793 42.6155 330.541 45.7013 338.684 45.5763C342.652 45.5154 346.253 44.0297 348.581 39.6076C348.753 34.556 347.989 29.797 344.015 25.4113C343.395 23.6681 342.775 21.9249 342.155 20.1818C342.631 20.2075 343.107 20.2333 343.583 20.2591C342.821 21.8512 342.06 23.4432 341.142 25.3617C335.54 22.6569 330.143 22.2578 324.209 24.6502C324.065 24.9042 323.921 25.1582 323.753 25.3612Z" fill="#FEE2E2"/>
<path d="M177.404 6.02582C184.338 10.0361 188.847 15.3574 190.543 23.1908C192.924 34.1858 188.488 42.4703 180.62 49.1937C169.686 58.5381 151.684 54.2408 144.474 43.4227C140.079 36.8301 138.815 30.2026 139.59 22.8495C140.325 15.8695 151.023 5.07794 158.045 3.61978C164.686 2.24105 171.113 2.25256 177.404 6.02582ZM155.086 27.9862C150.079 32.952 149.543 35.3251 152.577 40.5574C160.54 47.6516 175.426 44.3304 180.371 34.0585C182.377 29.8912 179.964 26.1069 174.422 24.1455C166.653 19.7971 165.387 17.5956 167.59 11.8724C161.914 15.1219 167.103 18.6378 167.076 22.8743C164.891 22.5966 162.416 22.9104 160.864 21.8599C159.859 21.1796 160.202 18.505 159.942 16.724C159.674 16.6719 159.407 16.6198 159.14 16.5677C158.934 19.2283 158.729 21.889 158.467 25.2665C158.015 25.6669 156.812 26.7301 155.086 27.9862Z" fill="#FEE2E2"/>
<path d="M48.6604 123.038C62.5028 113.124 88.6023 118.46 92.486 142.777C92.8106 144.809 92.4681 147.11 91.8403 149.098C90.5108 153.309 89.5531 157.969 87.0093 161.371C84.5155 164.707 80.522 167.255 76.7064 169.211C55.6002 180.029 36.3294 161.242 36.9031 143.497C37.1774 135.016 41.5911 128.273 48.6604 123.038ZM83.0865 146.11C81.6422 145.385 80.2531 144.506 78.744 143.959C71.4749 141.326 64.1249 138.623 56.3128 141.352C53.8594 142.209 52.9477 141.087 51.7389 139.553C50.7478 138.296 49.5535 137.198 48.4493 136.03C48.1868 136.298 47.9243 136.565 47.6618 136.833C49.1661 138.777 50.6704 140.721 52.1747 142.665C51.2791 141.986 50.3835 141.306 49.4878 140.627C47.4165 144.509 45.3452 148.391 43.2739 152.273C42.7047 151.605 43.1114 151.731 43.3908 151.993C43.6604 152.245 43.9759 152.642 43.9683 152.969C43.8286 158.957 47.9771 161.083 52.7188 161.565C60.9681 162.403 69.3138 163.05 77.5744 162.705C81.7606 162.53 85.7398 159.756 87.4345 155.287C88.9701 151.236 86.4765 148.688 83.0865 146.11ZM80.3325 139.013C80.1709 139.567 80.0093 140.12 79.8477 140.673C80.2758 140.614 80.7039 140.554 81.1321 140.495C80.9511 139.853 80.7701 139.211 80.3325 139.013ZM82.5973 136.84C82.8493 136.646 83.1012 136.453 83.3531 136.259C83.2017 136.101 83.0503 135.943 82.8989 135.785C82.7002 136.031 82.5016 136.277 82.5973 136.84ZM79.1344 142.344L79.2863 142.431C79.2863 142.431 79.2639 142.25 79.1344 142.344Z" fill="#FEE2E2"/>
<path d="M80.4462 232.576C79.1253 242.938 74.4006 250.793 65.0981 255.028C54.5191 259.845 44.5974 258.719 35.7003 250.576C27.4945 243.065 25.7422 233.878 28.9181 223.852C31.8749 214.519 38.5336 208.151 48.2904 206.316C63.6565 203.427 75.8774 210.511 79.5848 226.673C80.0021 228.492 80.1645 230.37 80.4462 232.576ZM67.4149 222.356C62.6223 217.324 56.7855 217.418 50.6222 218.841C49.0011 219.215 47.2971 219.23 45.4125 219.434C44.8863 220.252 44.0463 221.559 42.7192 223.079C41.3299 224.86 39.9406 226.641 38.2428 228.611C38.1733 228.708 38.0252 228.862 38.047 228.892C38.1818 229.076 38.3548 229.233 38.6188 229.593C38.6188 229.593 38.4882 229.77 38.3042 230.376C35.1318 236.098 35.3059 236.841 40.7861 241.125C41.2078 241.455 41.5827 241.845 41.9766 242.21C46.5263 246.422 58.7904 248.336 64.0357 244.955C67.0445 243.016 69.2427 239.778 71.6512 236.991C71.9765 236.615 71.3971 235.456 71.6451 234.279C74.5815 232.777 74.2666 230.675 72.5825 228.491C71.309 226.84 69.8383 225.341 68.2633 223.398C68.0564 223.224 67.8494 223.051 67.4149 222.356Z" fill="#FEE2E2"/>
<path d="M426.71 263.365C440.53 257.701 455.423 262.257 462.554 275.068C469.727 287.953 464.709 308.186 446.372 313.15C430.356 317.486 415.27 308.557 411.666 292.429C409.691 283.592 414.34 268.174 426.71 263.365ZM423.679 271.382C422.659 274.065 421.421 276.69 420.685 279.449C420.022 281.936 419.002 284.86 419.714 287.088C422.457 295.675 427.641 302.38 436.743 305.049C448.323 308.445 455.506 301.896 455.683 291.027C426.71 287.088 453.292 279.187 442 279.449C438.551 279.529 427.442 270.765 423.679 271.382Z" fill="#FEE2E2"/>
<path d="M86.943 80.0419C89.1978 67.1317 102.402 56.9448 112.573 57.1124C122.839 57.2816 131.492 61.0565 136.232 70.8681C141.286 81.3275 139.308 92.5088 130.987 101.642C131.769 103.233 132.604 104.932 133.44 106.631C133.226 106.807 133.013 106.983 132.799 107.159C131.731 106.002 130.664 104.844 129.436 103.514C128.503 104.069 127.445 104.593 126.502 105.277C115.95 112.924 100.429 109.241 92.6913 99.4548C88.1602 93.7242 86.2144 87.55 86.943 80.0419ZM103.271 68.5669C102.781 68.6915 102.29 68.8161 101.2 69.0628C99.6664 71.3172 97.3454 73.3759 96.7293 75.8582C93.103 90.4692 108.303 104.679 122.679 100.129C125.129 99.3541 128.194 97.4465 129.061 95.2915C132.382 87.0309 132.427 82.0572 125.988 74.9185C120.67 69.0218 109.748 66.0625 103.271 68.5669Z" fill="#FEE2E0"/>
<path d="M381.468 58.3151C394.273 59.3547 402.002 68.6045 402.749 79.3302C403.978 96.9469 391.02 111.356 371.946 108.394C360.571 106.627 353.996 97.8927 351.971 86.2652C349.3 70.9382 365.095 54.8649 381.468 58.3151ZM387.851 65.9765C382.901 67.0623 377.816 67.7368 373.034 69.3268C365.17 71.9418 360.578 78.422 361.346 86.6255C362.145 95.1555 363.201 97.641 372.26 97.4442C373.199 97.4237 374.141 97.4514 375.079 97.3958C391.762 96.4052 400.316 80.825 391.618 66.0345C390.595 66.029 389.571 66.0235 387.851 65.9765Z" fill="#FEE2E2"/>
<path d="M229.518 20.9319C237.976 11.9771 249.411 9.50406 259.362 14.7356C267.377 18.9494 272.364 25.8475 272.748 34.9147C273.142 44.1897 268.487 51.3249 260.623 56.223C258.69 57.4269 256.573 58.3601 254.476 59.2706C241.559 64.8808 230.967 56.5603 226.174 45.8802C222.191 37.0073 222.692 28.6867 229.518 20.9319ZM232.424 47.8988C234.163 52.3341 236.964 54.0653 241.902 53.3917C242.228 53.2731 242.554 53.1545 243.543 53.0835C251.276 51.7239 257.664 48.2329 262.181 41.5943C264.782 37.7718 265.338 33.9959 262.668 30.0039C260.784 27.1878 258.916 24.4204 261.773 21.0187C262.233 20.4704 262.036 18.725 261.494 18.1776C261.041 17.7212 259.616 18.1094 258.657 18.3001C256.344 18.7601 254.064 19.703 251.749 19.7794C241.944 20.103 230.364 30.2092 231.565 42.3302C231.867 43.9871 232.168 45.6439 232.424 47.8988Z" fill="#FEE2E0"/>
<path d="M136.2 361.306C131.386 354.997 125.985 349.044 123.781 340.805C122.742 331.488 121.341 322.421 121.145 313.328C120.473 282.254 120.163 251.17 119.844 220.089C119.711 207.17 119.879 194.247 119.98 181.326C119.994 179.467 120.406 177.612 121.119 175.47C121.841 175.213 122.077 175.241 122.291 175.588C122.049 178.442 121.647 180.975 121.636 183.509C121.546 205.02 121.499 226.531 121.498 248.042C121.497 257.446 121.633 266.85 121.623 276.599C121.531 280.476 124.318 278.242 125.964 279.127C126.65 279.344 127.05 279.424 127.45 279.424C164.675 279.432 201.9 279.439 239.124 279.415C240.158 279.414 241.192 279.083 242.563 278.874C244.256 278.861 245.611 278.881 247.248 279.084C248.196 279.32 248.864 279.419 249.531 279.419C286.358 279.422 323.184 279.433 360.011 279.391C363.872 279.386 367.734 279.069 371.966 278.87C375.448 278.775 374.201 276.367 374.204 274.962C374.254 246.952 374.367 218.941 374.086 190.933C374.016 183.917 372.62 176.914 372.133 169.588C372.615 169.043 372.796 168.816 372.978 168.589C374.036 174.797 375.958 180.999 376.005 187.216C376.253 219.632 376.024 252.053 375.637 284.811C374.989 285.138 374.664 285.127 374.318 284.756C374.297 283.238 374.297 282.081 374.297 280.949C289.844 280.949 205.797 280.949 121.574 280.949C121.574 282.68 121.527 284.02 121.582 285.356C122.14 298.947 122.988 312.533 123.207 326.129C123.415 339.097 127.965 349.923 137.235 359.117C136.817 360.066 136.509 360.686 136.2 361.306Z" fill="#1D1B20"/>
<path d="M233.249 125.707C235.355 120.723 237.461 115.739 240.005 110.484C241.302 109.354 242.161 108.495 243.362 107.551C245.335 107.532 246.968 107.599 248.703 107.894C250.275 108.901 251.745 109.682 253.484 110.586C253.933 110.627 254.112 110.544 254.289 110.435C254.287 110.408 254.256 110.452 254.256 110.452C256.011 115.431 257.767 120.41 259.729 125.885C259.933 126.846 259.929 127.31 259.884 128.117C259.303 128.815 258.761 129.486 258.226 129.48C250.175 129.389 242.124 129.209 233.992 128.868C233.758 128.46 233.552 128.299 233.219 128.075C233.144 127.947 233.16 127.648 233.189 127.326C233.228 126.571 233.239 126.139 233.249 125.707Z" fill="#29243A"/>
<path d="M259.927 127.775C259.93 127.311 259.933 126.846 259.927 126.15C290.228 125.868 319.722 130.411 347.789 142.24C358.779 146.871 367.426 154.375 372.016 166.137C371.559 166.972 371.338 167.33 370.951 167.449C366.8 156.692 359.11 149.79 348.984 144.848C320.43 132.314 290.52 128.241 259.927 127.775Z" fill="#303137"/>
<path d="M232.876 125.772C233.239 126.139 233.228 126.571 232.858 127.261C207.61 128.548 183.002 131.584 158.93 138.174C150.425 140.503 141.667 142.817 135.586 149.791C129.169 157.152 124.931 165.832 122.313 175.268C122.077 175.24 121.841 175.212 121.25 175.155C125.486 156.405 135.197 142.582 154.985 137.273C180.417 130.449 206.2 126.496 232.876 125.772Z" fill="#303137"/>
<path d="M248.601 107.667C246.968 107.6 245.336 107.533 243.024 107.453C238.755 107.875 235.174 108.423 231.571 108.681C230.397 108.766 228.652 108.45 228.11 107.665C227.584 106.903 228.217 105.297 228.437 104.079C228.542 103.493 228.867 102.947 229.093 102.383C230.135 101.85 231.177 101.317 232.524 101.095C233.117 101.801 233.394 102.533 233.694 102.542C243.032 102.844 252.381 102.946 261.706 103.467C262.985 103.538 265.245 105.732 265.152 106.774C264.932 109.232 262.771 109.25 260.504 108.887C256.571 108.258 252.572 108.051 248.601 107.667Z" fill="#F2F7FE"/>
<path d="M371.936 341.634C369.26 350.579 363.471 356.881 356.314 362.749C354.617 362.751 353.537 362.647 352.648 362.331C365.936 355.004 371.521 343.4 372.307 329.082C373.021 316.068 373.491 303.04 374.27 289.999C374.873 290.008 375.275 290.036 375.677 290.065C374.922 305.335 374.203 320.607 373.363 335.872C373.262 337.705 372.502 339.502 371.936 341.634Z" fill="#303137"/>
<path d="M84.1162 295.227C83.0748 298.764 82.4833 302.298 80.7553 305.14C76.2772 312.504 76.4781 315.056 83.156 320.455C83.6777 320.877 84.2269 321.268 84.7871 321.638C93.134 327.147 93.1349 327.146 93.8565 337.488C93.4845 336.544 92.9093 335.628 92.7756 334.652C92.1706 330.233 90.003 326.922 86.2491 324.519C84.2173 323.219 82.2539 321.769 80.4348 320.186C75.1526 315.588 74.7936 311.103 78.77 305.333C80.2611 303.17 81.9846 300.707 82.2111 298.252C82.4701 295.445 81.1801 292.496 80.4576 289.114C82.9669 290.028 83.4874 292.485 84.1162 295.227Z" fill="#3E3C3F"/>
<path d="M84.1222 341.285C83.7338 341.533 83.5249 341.573 83.1702 341.714C84.8673 333.481 81.5789 327.483 74.9764 322.718C69.197 318.547 68.2076 313.905 71.3992 307.603C72.124 306.172 72.9349 304.764 73.8679 303.462C76.2811 300.094 78.3874 296.724 76.042 292.099C76.5842 292.598 77.6049 293.113 77.5894 293.594C77.5022 296.312 77.5058 299.114 76.8007 301.703C76.2962 303.555 74.6579 305.076 73.6472 306.816C69.7805 313.472 70.544 317.337 76.6849 322.017C80.6233 325.018 84.14 328.396 84.8065 333.544C85.1202 335.966 84.4898 338.511 84.1222 341.285Z" fill="#3E3C3F"/>
<path d="M73.1493 341.483C72.4142 341.92 71.7472 342.074 70.9893 342.025C74.5387 335.65 73.9102 332.369 68.2539 328.014C59.9629 321.63 58.9234 315.621 64.0524 306.689C65.9829 303.327 67.0855 299.49 68.7207 295.489C69.4701 298.846 68.6796 301.865 67.1713 304.763C66.3053 306.427 65.1316 307.933 64.2898 309.607C61.3446 315.465 62.4622 320.919 67.407 325.197C68.3231 325.989 69.3079 326.701 70.2409 327.475C75.5669 331.891 76.2124 334.883 73.1493 341.483Z" fill="#3E3C3F"/>
<path d="M248.703 107.894C252.572 108.05 256.572 108.258 260.504 108.887C262.771 109.249 264.932 109.231 265.152 106.773C265.245 105.732 262.985 103.538 261.706 103.466C252.381 102.946 243.033 102.844 233.694 102.542C233.394 102.532 233.117 101.801 232.833 101.152C241.934 101.009 251.034 101.073 260.13 101.283C261.547 101.316 263.302 101.627 264.27 102.506C265.583 103.698 267.449 106.405 267.034 106.977C265.805 108.671 263.701 110.325 261.697 110.702C259.474 111.12 256.984 110.112 254.433 110.088C254.257 110.452 254.287 110.408 254.38 110.125C254.054 110.048 253.635 110.255 253.216 110.462C251.746 109.682 250.276 108.901 248.703 107.894Z" fill="#3E3C3F"/>
<path d="M228.795 102.42C228.867 102.947 228.541 103.493 228.436 104.079C228.217 105.297 227.583 106.903 228.11 107.665C228.652 108.45 230.396 108.765 231.571 108.681C235.173 108.423 238.754 107.875 242.682 107.538C242.161 108.496 241.302 109.354 240.236 110.327C237.583 110.37 235.076 109.932 232.704 110.318C229.566 110.829 227.059 110.546 225.846 107.293C224.926 104.823 225.657 102.994 228.795 102.42Z" fill="#3E3C3F"/>
<path d="M375.785 289.764C375.275 290.037 374.873 290.008 374.213 289.65C374.082 287.919 374.21 286.518 374.338 285.116C374.663 285.127 374.988 285.138 375.558 285.143C375.832 286.579 375.863 288.021 375.785 289.764Z" fill="#5A444A"/>
<path d="M371.116 167.689C371.337 167.33 371.558 166.972 372.038 166.431C372.538 166.864 372.781 167.48 373.001 168.343C372.796 168.816 372.614 169.043 372.002 169.392C371.42 168.905 371.268 168.297 371.116 167.689Z" fill="#1D1B20"/>
<path d="M318.358 53.7854C318.503 53.6879 318.649 53.7354 318.795 53.7829C318.65 53.8321 318.505 53.8813 318.358 53.7854Z" fill="#FEE2E2"/>
<path d="M352.457 362.543C353.537 362.647 354.616 362.752 356.102 362.893C355.848 363.903 355.188 364.875 354.073 366.075C353.398 366.768 353.178 367.234 352.958 367.699C349.296 372.505 345.715 377.377 341.904 382.062C341.107 383.041 339.473 383.823 338.204 383.854C331.213 384.026 324.215 383.936 317.006 383.936C316.767 382.833 316.527 381.727 316.268 380.533C270.108 380.533 224.098 380.533 177.791 380.533C177.517 381.578 177.24 382.638 176.907 383.913C169.258 383.913 161.607 383.971 153.959 383.844C152.937 383.827 151.588 383.133 150.971 382.315C146.282 376.097 141.738 369.771 137.023 363.021C136.792 362.308 136.609 362.131 136.348 362.034C136.348 362.034 136.189 361.687 136.194 361.496C136.508 360.685 136.817 360.065 137.331 359.195C137.536 358.946 137.617 359.181 137.773 359.427C138.429 359.915 138.929 360.157 139.711 360.464C144.534 363.56 149.634 364.461 154.967 364.459C216.575 364.436 278.183 364.446 339.791 364.305C344.014 364.296 348.235 363.157 352.457 362.543Z" fill="#29243A"/>
<path d="M435.73 388.474C440.485 391.415 445.264 394.319 449.969 397.337C450.687 397.798 450.975 398.881 451.623 399.509C452.699 400.551 453.762 401.942 455.082 402.334C459.429 403.623 463.889 404.529 468.523 406.047C462.383 407.823 456.081 409.81 449.66 410.332C416.788 413.005 383.879 413.324 350.994 410.438C344.724 409.888 338.506 408.711 332.278 407.732C330.945 407.522 329.032 407.412 330.195 405.078C331.229 404.785 332.247 404.393 333.3 404.214C339.505 403.157 345.934 402.835 349.469 396.105C350.368 394.393 352.801 393.488 355.078 392.04C365.022 393.003 370.555 397.213 367.814 408.177C369.613 405.784 368.43 401.999 372.369 401.944C375.031 401.906 377.695 401.891 380.358 401.904C382.301 401.914 384.245 401.986 386.513 401.911C391.826 401.283 396.811 400.721 401.81 400.34C402.371 400.298 403.009 401.286 403.704 402.039C404.497 403.024 405.198 403.766 406.053 404.745C407.809 405.706 409.413 406.43 411.017 407.155C411.691 405.472 412.365 403.789 413.039 402.106C412.723 401.968 412.407 401.83 412.091 401.692C411.277 403.029 410.463 404.366 409.603 405.78C408.535 405.127 407.524 404.509 406.418 403.664C405.761 402.845 405.197 402.252 404.634 401.348C404.663 400.423 404.691 399.81 404.708 399.21C404.696 399.224 404.673 399.252 404.947 399.201C405.321 398.624 405.422 398.099 405.512 397.588C405.501 397.603 405.477 397.63 405.725 397.643C406.094 397.362 406.217 397.07 406.328 396.789C406.317 396.8 406.299 396.827 406.554 396.74C407.461 395.614 408.113 394.576 408.751 393.549C408.737 393.561 408.71 393.585 409.014 393.597C411.263 394.7 413.207 395.791 415.259 397.133C415.674 397.626 415.988 398.085 416.287 398.076C424.001 397.838 431.713 397.552 439.635 397.412C439.713 397.039 439.58 396.528 439.25 395.834C436.549 393.905 433.402 392.457 435.73 388.474ZM449.346 400.417C448.161 400.912 446.976 401.407 446.828 401.468C444.52 399.814 442.995 398.72 441.47 397.627C441.259 397.88 441.047 398.133 440.836 398.386C441.944 399.705 442.911 401.185 444.19 402.309C446.531 404.366 448.812 403.512 449.346 400.417Z" fill="url(#paint0_linear_349_3409)"/>
<path d="M357.599 390.214C362.473 388.088 367.348 385.962 372.669 384.119C374.238 384.66 375.393 384.825 376.475 385.199C378.259 385.816 380.699 386.114 381.53 387.405C382.196 388.441 380.888 390.749 380.478 392.401C383.729 392.414 384.52 390.675 383.037 385.338C384.1 385.001 385.158 384.665 386.217 384.329C384.213 383.888 382.25 384.085 380.345 383.836C378.2 383.556 376.109 382.874 373.994 382.367C391.494 376.436 408.575 379.308 425.523 384.843C428.188 385.713 430.83 386.656 433.447 388.005C431.076 388.587 428.74 388.73 426.405 388.873C426.408 389.009 426.412 389.145 426.416 389.281C428.657 389.442 430.898 389.603 432.841 389.743C433.796 391.922 434.614 393.79 435.499 395.812C429.02 395.812 422.641 395.812 416.089 395.595C414.746 394.511 413.685 393.268 412.376 392.891C411.308 392.584 409.943 393.314 408.71 393.584C408.71 393.584 408.738 393.561 408.458 393.531C407.552 394.61 406.925 395.718 406.299 396.827C406.299 396.827 406.317 396.8 406.064 396.722C405.699 396.973 405.588 397.302 405.477 397.63C405.477 397.63 405.501 397.603 405.263 397.676C404.907 398.25 404.79 398.751 404.673 399.252C404.673 399.252 404.696 399.224 404.39 399.17C402.887 397.866 401.689 396.617 400.701 395.587C400.63 396.027 400.443 397.181 400.129 399.119C396.775 399.119 393.456 398.949 390.17 399.2C388.78 399.306 387.456 400.297 385.844 401.027C383.849 401.468 381.55 403.119 381.649 399.362C382.052 399.115 382.203 398.903 382.543 398.532C384.72 397.59 386.635 396.754 388.733 396.083C389.214 394.863 389.604 393.492 389.79 392.094C390.449 387.134 393.169 385.08 398.004 385.948C399.05 386.135 400.112 386.229 401.167 386.366C401.232 385.902 401.296 385.439 401.361 384.975C398.106 384.47 394.852 383.965 391.692 383.475C391.692 384.649 391.91 385.835 391.659 385.944C387.745 387.65 388.294 390.999 388.169 394.319C385.782 395.607 383.687 396.803 381.446 398.102C381.114 398.363 380.959 398.546 380.587 398.963C376.854 399.699 373.368 400.228 370.043 400.733C368.765 398.083 367.697 395.866 366.47 393.319C368.6 392.635 370.437 391.841 372.355 391.478C375.009 390.975 375.035 391.113 373.877 388.617C368.728 392.11 363.353 392.737 357.599 390.214ZM415.346 385.66C411.983 384.313 408.62 382.967 404.954 381.499C404.318 384.416 403.884 386.403 403.451 388.39C403.841 388.558 404.231 388.726 404.622 388.894C405.268 387.306 405.915 385.717 406.72 383.737C410.092 384.981 413.5 386.238 416.908 387.495C417.037 387.136 417.165 386.776 417.293 386.417C416.834 386.229 416.375 386.041 415.346 385.66Z" fill="url(#paint1_linear_349_3409)"/>
<path d="M71.3678 355.996C72.5708 354.732 73.7738 353.468 74.9872 352.193C76.2016 353.304 77.0106 354.045 77.8718 355.043C76.992 355.49 76.06 355.679 75.1279 355.868C92.4611 356.079 109.01 359.295 125.723 367.391C122.852 367.95 121.037 368.303 119.449 368.613C118.619 367.339 118.043 366.453 117.466 365.566C117.271 365.664 117.077 365.762 116.882 365.86C116.967 366.894 117.052 367.928 117.17 369.359C91.5608 372.758 66.0946 373.279 39.6074 368.049C50.4315 360.816 61.9509 359.571 73.7805 356.895C72.367 356.368 71.8674 356.182 71.3678 355.996Z" fill="#F2EBED"/>
<path d="M71.0607 356.053C71.8672 356.181 72.3668 356.368 73.7803 356.895C61.9506 359.571 50.4313 360.816 39.6072 368.049C66.0944 373.279 91.5605 372.758 117.169 369.359C117.052 367.928 116.967 366.894 116.882 365.859C117.077 365.762 117.271 365.664 117.465 365.566C118.042 366.452 118.619 367.338 119.449 368.612C121.037 368.303 122.851 367.95 125.723 367.391C109.01 359.295 92.4609 356.079 75.1277 355.868C76.0597 355.679 76.9918 355.49 78.169 355.107C80.411 354.956 82.5781 355.324 83.2998 352.272C83.5261 352.061 83.5044 352.016 83.5044 352.016C83.7064 354.224 84.5966 355.351 87.1316 355.364C99.5777 355.43 111.075 359.779 122.643 363.662C127.387 365.255 127.352 365.892 125.035 370.257C119.508 380.671 113.892 391.063 110.933 402.832C117.632 404.315 124.132 405.754 130.631 407.193C130.668 407.819 130.705 408.445 130.742 409.072C128.943 409.908 127.212 411.239 125.334 411.495C116.832 412.658 108.289 413.517 99.4072 414.196C99.0503 413.587 99.0476 413.269 99.3855 412.873C109.223 411.988 118.879 412.231 127.998 408.397C121.084 406.851 114.432 403.15 107.152 406.2C107.899 404.614 108.726 403.371 109.259 402.014C111.709 395.773 113.942 389.443 116.521 383.258C118.299 378.994 120.517 374.914 122.752 370.311C95.6836 374.864 69.0652 374.798 42.2058 370.907C47.2703 381.621 52.1457 392.232 57.3625 402.672C58.2165 404.382 60.424 406.168 62.2629 406.502C71.0713 408.101 79.9511 410.03 88.8391 410.213C94.9146 410.339 101.045 407.788 107.406 406.675C106.232 407.833 104.914 409.072 103.355 409.613C95.0098 412.507 86.35 411.739 77.8381 411C71.8771 410.482 65.8084 409.336 60.2024 407.318C56.9813 406.158 54.1155 404.862 50.6531 405.182C50.5999 404.672 50.5778 404.469 50.5556 404.265C51.9869 404.04 53.4182 403.815 55.6043 403.471C49.6058 390.834 43.7858 378.573 37.8838 366.139C48.0439 361.373 58.896 357.136 71.0607 356.053Z" fill="#303137"/>
<path d="M329.927 405.105C329.032 407.412 330.945 407.522 332.278 407.732C338.506 408.711 344.724 409.887 350.994 410.438C383.879 413.324 416.788 413.004 449.66 410.332C456.081 409.81 462.383 407.823 468.801 406.212C469.562 406.232 470.262 406.551 472.277 407.469C469.453 408.511 467.765 409.518 465.982 409.728C454.374 411.098 442.772 412.963 431.119 413.418C401.667 414.567 372.19 414.922 342.83 411.412C338.973 410.951 335.158 410.058 331.363 409.191C329.883 408.853 328.512 408.035 326.24 407.076C327.924 406.119 328.791 405.626 329.927 405.105Z" fill="#3E3C3F"/>
<path d="M50.2167 404.224C50.5777 404.469 50.5999 404.673 50.3639 405.273C45.9388 406.45 41.7718 407.23 37.6049 408.011C37.6665 408.539 37.7281 409.068 37.7897 409.596C41.1778 410.183 44.5506 411.158 47.9566 411.292C64.9813 411.966 82.0147 412.42 99.045 412.951C99.0476 413.269 99.0503 413.588 99.0591 414.146C79.803 415.134 60.5534 415.456 41.4726 412.002C39.0454 411.563 36.7219 410.549 33.2998 409.471C38.8311 404.928 44.5552 405.173 50.2167 404.224Z" fill="#3E3C3F"/>
<path d="M381.471 399.449C381.549 403.119 383.849 401.468 385.863 401.313C386.157 401.649 386.173 401.839 386.188 402.03C384.244 401.986 382.301 401.914 380.358 401.904C377.695 401.891 375.031 401.906 372.369 401.944C368.43 401.999 369.613 405.784 367.814 408.177C370.555 397.213 365.022 393.002 355.275 391.879C355.609 391.331 356.294 390.771 357.289 390.212C363.352 392.737 368.728 392.11 373.877 388.617C375.035 391.113 375.008 390.974 372.355 391.477C370.437 391.841 368.599 392.635 366.47 393.319C367.697 395.866 368.765 398.083 370.042 400.733C373.368 400.228 376.854 399.699 380.741 399.141C381.252 399.225 381.361 399.337 381.471 399.449Z" fill="#3E3C3F"/>
<path d="M416.262 395.811C422.641 395.811 429.02 395.811 435.499 395.811C434.614 393.79 433.795 391.921 432.841 389.742C430.897 389.603 428.656 389.442 426.415 389.28C426.412 389.144 426.408 389.008 426.404 388.872C428.74 388.729 431.075 388.587 433.657 388.215C434.389 388.04 434.875 388.093 435.546 388.31C433.402 392.457 436.549 393.904 439.242 396.148C439.43 396.855 439.427 397.064 439.425 397.274C431.712 397.552 424.001 397.838 416.287 398.075C415.988 398.085 415.674 397.625 415.391 396.904C415.697 396.22 415.98 396.015 416.262 395.811Z" fill="#29243A"/>
<path d="M373.733 382.398C376.108 382.873 378.2 383.555 380.344 383.835C382.249 384.084 384.213 383.888 386.216 384.329C385.158 384.665 384.099 385.001 383.036 385.338C384.519 390.675 383.728 392.414 380.477 392.401C380.887 390.749 382.196 388.44 381.529 387.404C380.698 386.114 378.258 385.815 376.475 385.199C375.392 384.825 374.237 384.66 372.959 384.116C373.026 383.365 373.249 382.898 373.733 382.398Z" fill="#3E3C3F"/>
<path d="M353.188 367.593C353.178 367.234 353.399 366.769 353.88 366.236C353.901 366.609 353.659 367.048 353.188 367.593Z" fill="#303137"/>
<path d="M136.34 362.25C136.609 362.131 136.793 362.308 136.957 362.752C136.786 362.781 136.558 362.624 136.34 362.25Z" fill="#1D1B20"/>
<path d="M83.5383 352.083C83.7551 352.065 83.9599 352.025 84.1648 351.985C84.0186 352.099 83.8724 352.213 83.6155 352.171C83.5047 352.016 83.5265 352.061 83.5383 352.083Z" fill="#303137"/>
<path d="M324.458 24.6436C324.54 24.867 324.372 25.0975 323.99 25.3703C323.921 25.1586 324.065 24.9046 324.458 24.6436Z" fill="#CB6056"/>
<path d="M80.4608 138.791C80.7701 139.211 80.9511 139.853 81.1321 140.494C80.7039 140.554 80.2758 140.613 79.8477 140.673C80.0093 140.12 80.1709 139.566 80.4608 138.791Z" fill="#DEE1FB"/>
<path d="M82.4502 136.68C82.5017 136.276 82.7003 136.03 82.8989 135.784C83.0503 135.942 83.2018 136.101 83.3532 136.259C83.1012 136.452 82.8493 136.646 82.4502 136.68Z" fill="#DEE1FB"/>
<path d="M79.1997 142.297C79.2647 142.25 79.2872 142.431 79.2872 142.431C79.2872 142.431 79.1347 142.344 79.1997 142.297Z" fill="#DEE1FB"/>
<path d="M38.3971 228.517C38.5609 228.585 38.5705 228.748 38.5476 229.155C38.3548 229.233 38.1818 229.076 38.047 228.892C38.0253 228.862 38.1733 228.708 38.3971 228.517Z" fill="white"/>
<path d="M370.951 167.449C371.268 168.297 371.42 168.905 371.703 169.71C372.621 176.915 374.016 183.917 374.086 190.933C374.367 218.941 374.254 246.952 374.204 274.962C374.202 276.367 375.448 278.775 371.595 278.768C352.242 278.689 333.63 278.686 315.018 278.684C307.303 278.684 299.587 278.69 291.871 278.686C278.376 278.68 264.88 278.66 251.385 278.668C249.912 278.669 248.439 278.819 246.967 278.9C245.611 278.881 244.256 278.862 242.192 278.772C226.94 278.692 212.396 278.681 197.852 278.676C176.337 278.667 154.823 278.653 133.308 278.67C130.764 278.672 128.221 278.853 125.678 278.951C124.318 278.242 121.531 280.476 121.996 276.599C127.806 275.985 133.162 275.453 138.514 275.49C162.605 275.657 186.696 276.01 210.787 276.241C219.473 276.324 228.161 276.351 236.845 276.232C250.417 276.047 263.989 275.457 277.559 275.5C304.603 275.586 331.645 276.031 358.688 276.2C362.362 276.223 366.041 275.507 370.124 275.092C369.826 272.052 369.574 269.479 369.332 267.01C366.577 267.277 364.499 267.722 362.449 267.618C359.532 267.472 356.631 266.579 353.73 266.61C344.65 266.706 335.575 267.273 326.496 267.325C268.738 267.654 210.981 267.92 153.223 268.124C147.665 268.144 142.631 271.071 136.754 269.969C131.159 268.919 128.063 266.705 128.194 261.09C128.285 257.212 128.886 253.344 128.931 249.467C129.043 239.764 129.267 230.047 128.879 220.358C128.531 211.683 127.468 203.034 126.637 194.382C126.243 190.279 124.43 185.878 125.391 182.164C127.83 172.74 132.344 164.018 139.467 157.194C141.899 154.864 145.74 154.008 149.163 152.764C150.721 153.146 152.053 153.326 153.384 153.326C212.992 153.298 272.6 153.259 332.208 153.202C335.02 153.199 337.831 153.028 340.688 153.284C340.835 155.018 340.936 156.402 341.074 158.294C343.915 156.7 346.084 154.67 348.467 154.377C350.796 154.092 353.343 155.578 355.794 156.286C356.052 155.933 356.31 155.579 356.568 155.226C354.777 153.478 352.965 151.75 351.202 149.974C349.865 148.628 347.151 147.807 349.192 145.063C359.11 149.79 366.8 156.692 370.951 167.449ZM152.377 207.184C152.392 216.754 152.306 226.326 152.455 235.894C152.579 243.808 157.018 248.117 164.731 248.117C220.911 248.117 277.09 248.112 333.269 248.095C342.599 248.092 347.352 243.387 347.441 233.948C347.537 223.704 347.533 213.459 347.498 203.215C347.471 195.356 343.837 191.67 335.888 191.478C331.715 191.377 327.536 191.55 323.36 191.564C271.093 191.73 218.826 192.027 166.56 191.93C156.85 191.912 151.585 198.245 152.377 207.184ZM307.746 183.125C305.023 184.097 302.3 185.07 299.577 186.042C299.713 186.656 299.849 187.27 299.985 187.883C307.12 183.285 314.269 184.264 321.475 187.422C317.879 183.209 313.191 182.984 307.746 183.125ZM181.194 183.291C178.704 184.331 176.215 185.372 173.725 186.413C173.844 186.549 173.963 186.685 174.082 186.821C180.309 186.015 186.537 185.209 192.764 184.403C192.827 184.283 192.89 184.162 192.954 184.042C189.251 183.76 185.549 183.478 181.194 183.291Z" fill="#F2F7FE"/>
<path d="M137.618 359.182C137.618 359.182 137.537 358.946 137.44 358.867C127.965 349.923 123.415 339.097 123.206 326.129C122.988 312.533 122.139 298.947 121.581 285.356C121.526 284.02 121.574 282.68 121.574 280.949C205.796 280.949 289.844 280.949 374.296 280.949C374.296 282.081 374.296 283.238 374.317 284.756C374.21 286.518 374.082 287.919 374.012 289.67C373.492 303.041 373.021 316.068 372.307 329.082C371.521 343.401 365.937 355.005 352.649 362.331C348.235 363.157 344.014 364.296 339.791 364.306C278.184 364.446 216.575 364.436 154.968 364.459C149.635 364.461 144.534 363.561 139.562 360.227C138.626 359.677 138.122 359.429 137.618 359.182ZM200.691 340.63C201.994 346.263 203.947 348.221 208.927 348.234C235.847 348.304 262.768 348.328 289.689 348.279C294.062 348.272 297.609 344.531 297.605 340.931C297.588 328.677 297.588 316.423 297.432 304.17C297.368 299.091 294.678 296.49 289.602 296.482C262.681 296.444 235.76 296.446 208.839 296.514C203.338 296.528 200.713 299.261 200.68 304.788C200.61 316.504 200.641 328.221 200.691 340.63Z" fill="#FCE0DE"/>
<path d="M148.937 152.478C145.74 154.007 141.899 154.864 139.468 157.193C132.345 164.018 127.83 172.74 125.391 182.163C124.43 185.877 126.243 190.278 126.637 194.381C127.468 203.033 128.531 211.682 128.879 220.357C129.267 230.046 129.043 239.764 128.931 249.467C128.886 253.344 128.285 257.212 128.194 261.09C128.063 266.705 131.159 268.919 136.754 269.968C142.632 271.071 147.665 268.143 153.223 268.124C210.981 267.92 268.739 267.654 326.496 267.324C335.575 267.273 344.651 266.706 353.73 266.61C356.631 266.579 359.532 267.472 362.449 267.618C364.499 267.721 366.577 267.277 369.333 267.01C369.574 269.478 369.827 272.052 370.124 275.092C366.041 275.507 362.363 276.222 358.689 276.199C331.645 276.031 304.603 275.585 277.56 275.5C263.989 275.457 250.418 276.046 236.845 276.232C228.161 276.351 219.473 276.324 210.788 276.24C186.696 276.009 162.606 275.657 138.514 275.49C133.162 275.453 127.807 275.984 122.08 276.254C121.633 266.85 121.497 257.446 121.498 248.041C121.499 226.531 121.546 205.02 121.637 183.509C121.647 180.974 122.049 178.441 122.291 175.588C124.932 165.833 129.169 157.152 135.587 149.792C141.668 142.817 150.425 140.503 158.931 138.174C183.002 131.584 207.611 128.548 232.83 127.584C233.161 127.649 233.145 127.947 233.211 128.313C233.543 128.802 233.808 128.926 234.073 129.05C242.124 129.209 250.175 129.389 258.227 129.48C258.761 129.486 259.303 128.816 259.884 128.117C290.52 128.241 320.43 132.313 348.984 144.847C347.152 147.807 349.865 148.627 351.202 149.974C352.966 151.749 354.777 153.477 356.568 155.226C356.31 155.579 356.052 155.932 355.794 156.286C353.343 155.577 350.796 154.091 348.467 154.377C346.085 154.669 343.915 156.699 341.074 158.293C340.936 156.402 340.835 155.017 340.628 152.975C339.142 152.065 337.762 151.594 336.383 151.594C275.28 151.588 214.178 151.619 153.075 151.69C151.696 151.691 150.317 152.204 148.937 152.478ZM239.34 142.111C264.322 142.111 289.304 142.111 314.286 142.111C314.281 141.703 314.277 141.295 314.273 140.886C269.047 140.886 223.821 140.886 178.595 140.886C178.594 141.294 178.592 141.703 178.59 142.111C198.571 142.111 218.551 142.111 239.34 142.111Z" fill="#EEF3FC"/>
<path d="M247.247 279.083C248.439 278.818 249.911 278.668 251.384 278.667C264.88 278.659 278.375 278.679 291.871 278.686C299.587 278.689 307.302 278.683 315.018 278.683C333.63 278.685 352.242 278.688 371.224 278.793C367.733 279.068 363.872 279.385 360.01 279.39C323.184 279.432 286.357 279.421 249.531 279.418C248.863 279.418 248.196 279.32 247.247 279.083Z" fill="#57606B"/>
<path d="M125.964 279.126C128.221 278.853 130.764 278.672 133.307 278.67C154.822 278.653 176.337 278.667 197.852 278.675C212.396 278.681 226.94 278.692 241.855 278.803C241.192 279.083 240.158 279.414 239.124 279.415C201.899 279.439 164.675 279.432 127.45 279.424C127.05 279.424 126.65 279.344 125.964 279.126Z" fill="#57606B"/>
<path d="M233.992 128.868C233.807 128.926 233.542 128.802 233.286 128.441C233.552 128.299 233.758 128.46 233.992 128.868Z" fill="#303137"/>
<path d="M253.484 110.586C253.634 110.255 254.053 110.048 254.382 110.152C254.112 110.545 253.933 110.627 253.484 110.586Z" fill="white"/>
<path d="M137.773 359.428C138.121 359.429 138.625 359.677 139.279 360.162C138.929 360.157 138.429 359.915 137.773 359.428Z" fill="#1D1B20"/>
<path d="M386.512 401.911C386.172 401.839 386.157 401.649 386.122 401.172C387.456 400.297 388.779 399.306 390.17 399.2C393.456 398.949 396.774 399.119 400.129 399.119C400.443 397.181 400.63 396.027 400.701 395.587C401.689 396.617 402.886 397.866 404.402 399.156C404.691 399.81 404.663 400.423 404.377 401.373C403.95 401.738 403.781 401.767 403.612 401.796C403.009 401.286 402.37 400.297 401.81 400.34C396.811 400.72 391.826 401.283 386.512 401.911Z" fill="#303137"/>
<path d="M449.602 400.389C448.812 403.511 446.53 404.365 444.189 402.308C442.91 401.184 441.943 399.704 440.836 398.385C441.047 398.132 441.258 397.879 441.469 397.626C442.994 398.72 444.52 399.813 446.828 401.468C446.975 401.406 448.161 400.911 449.602 400.389Z" fill="#3E3C3F"/>
<path d="M406.512 403.891C407.524 404.509 408.535 405.127 409.603 405.779C410.463 404.366 411.277 403.029 412.091 401.691C412.407 401.83 412.723 401.968 413.039 402.106C412.365 403.789 411.691 405.472 411.017 407.154C409.414 406.43 407.81 405.706 406.208 404.591C406.311 404.098 406.411 403.995 406.512 403.891Z" fill="#3E3C3F"/>
<path d="M416.088 395.595C415.979 396.016 415.697 396.22 415.283 396.653C413.207 395.791 411.262 394.7 409.014 393.597C409.943 393.314 411.308 392.584 412.375 392.891C413.685 393.268 414.746 394.511 416.088 395.595Z" fill="#3E3C3F"/>
<path d="M403.704 402.039C403.781 401.767 403.951 401.738 404.377 401.685C405.197 402.252 405.761 402.844 406.418 403.664C406.411 403.994 406.311 404.098 406.055 404.354C405.199 403.766 404.497 403.024 403.704 402.039Z" fill="#3E3C3F"/>
<path d="M406.554 396.74C406.924 395.718 407.551 394.609 408.471 393.519C408.112 394.575 407.461 395.614 406.554 396.74Z" fill="#3E3C3F"/>
<path d="M404.947 399.2C404.79 398.751 404.907 398.25 405.274 397.661C405.422 398.098 405.321 398.623 404.947 399.2Z" fill="#3E3C3F"/>
<path d="M439.635 397.412C439.427 397.065 439.43 396.855 439.44 396.331C439.58 396.528 439.712 397.039 439.635 397.412Z" fill="#3E3C3F"/>
<path d="M405.724 397.643C405.588 397.302 405.699 396.973 406.074 396.711C406.216 397.07 406.094 397.362 405.724 397.643Z" fill="#3E3C3F"/>
<path d="M388.461 394.224C388.293 390.999 387.745 387.649 391.659 385.943C391.909 385.834 391.691 384.649 391.691 383.475C394.851 383.965 398.106 384.47 401.361 384.974C401.296 385.438 401.231 385.902 401.166 386.365C400.112 386.228 399.049 386.134 398.003 385.947C393.168 385.08 390.448 387.133 389.789 392.093C389.603 393.492 389.213 394.863 388.729 395.8C388.515 394.977 388.488 394.601 388.461 394.224Z" fill="#303137"/>
<path d="M415.63 385.756C416.374 386.04 416.833 386.228 417.293 386.417C417.164 386.776 417.036 387.136 416.908 387.495C413.5 386.238 410.092 384.981 406.72 383.737C405.914 385.716 405.268 387.305 404.621 388.894C404.231 388.726 403.84 388.558 403.45 388.39C403.884 386.403 404.317 384.415 404.953 381.499C408.62 382.967 411.982 384.313 415.63 385.756Z" fill="#303137"/>
<path d="M388.169 394.318C388.489 394.601 388.516 394.977 388.546 395.636C386.635 396.754 384.72 397.59 382.376 398.366C381.827 398.204 381.71 398.101 381.592 397.998C383.687 396.803 385.782 395.607 388.169 394.318Z" fill="#3E3C3F"/>
<path d="M380.988 398.934C380.958 398.546 381.113 398.362 381.445 398.102C381.709 398.101 381.827 398.204 382.112 398.473C382.202 398.903 382.051 399.115 381.649 399.362C381.361 399.337 381.251 399.224 380.988 398.934Z" fill="#3E3C3F"/>
<path d="M107.151 406.434C101.046 407.788 94.9149 410.339 88.8394 410.213C79.9514 410.03 71.0715 408.101 62.2632 406.502C60.4243 406.168 58.2168 404.382 57.3628 402.673C52.146 392.232 47.2706 381.621 42.2061 370.907C69.0655 374.799 95.6839 374.864 122.752 370.312C120.517 374.914 118.3 378.995 116.522 383.258C113.942 389.444 111.71 395.773 109.26 402.014C108.727 403.372 107.9 404.614 107.172 406.192C107.137 406.476 107.151 406.434 107.151 406.434Z" fill="#FCE0DE"/>
<path d="M99.3861 412.873C82.0152 412.419 64.9818 411.966 47.9571 411.292C44.5512 411.157 41.1784 410.183 37.7903 409.596C37.7287 409.067 37.6671 408.539 37.6055 408.011C41.7724 407.23 45.9393 406.45 50.3954 405.578C54.1161 404.862 56.9818 406.159 60.2029 407.318C65.809 409.336 71.8776 410.482 77.8386 411C86.3505 411.739 95.0103 412.507 103.355 409.613C104.915 409.073 106.233 407.833 107.407 406.675C107.152 406.434 107.137 406.476 107.117 406.484C114.432 403.15 121.085 406.851 127.999 408.397C118.88 412.231 109.223 411.988 99.3861 412.873Z" fill="#FCE0DE"/>
<path d="M428.51 128.719C427.084 127.845 425.799 127.01 424.937 125.857C424.76 125.62 426.133 123.513 426.851 123.477C428.061 123.416 429.318 124.324 430.556 124.825C429.971 126.098 429.386 127.372 428.51 128.719Z" fill="#F2EBED"/>
<path d="M425.723 205.069C425.976 204.662 426.275 204.303 426.573 203.944C426.466 204.352 426.358 204.761 426.051 205.194C425.853 205.219 425.767 205.118 425.723 205.069Z" fill="#5A444A"/>
<path d="M55.2888 150.623C54.598 150.507 53.7862 150.161 52.9766 149.526C53.7084 149.623 54.4381 150.008 55.2888 150.623Z" fill="#F2F7FE"/>
<path d="M76.4096 159.502C75.4411 159.962 74.5821 160.202 73.7231 160.442C73.6604 160.056 73.5978 159.669 73.5352 159.282C74.5298 159.282 75.5244 159.282 76.4096 159.502Z" fill="#F2EBED"/>
<path d="M56.2769 146.547C55.8067 147.084 55.4203 147.429 55.034 147.773C54.924 147.571 54.8141 147.369 54.7041 147.167C55.2563 146.896 55.8086 146.625 56.2769 146.547Z" fill="#F2F7FE"/>
<path d="M65.4669 146.361C65.5147 146.332 65.4191 146.39 65.4669 146.361Z" fill="#F2EBED"/>
<path d="M64.0141 150.215C64.1241 150.369 64.0357 150.514 63.753 150.652C63.6292 150.491 63.7149 150.344 64.0141 150.215Z" fill="#F2F7FE"/>
<path d="M64.6423 144.821C64.6716 144.869 64.6129 144.772 64.6423 144.821Z" fill="#F2EBED"/>
<path d="M51.9582 224.541C51.9582 224.541 51.6622 224.524 51.5145 224.517C50.9021 224.374 50.4374 224.238 49.8458 223.891C49.7187 223.679 49.7062 223.694 49.9643 223.63C50.801 223.891 51.3796 224.216 51.9582 224.541Z" fill="#57606B"/>
<path d="M49.7251 223.673C49.4756 223.544 49.2194 223.423 48.9386 223.084C48.9142 222.865 48.9189 222.86 49.1447 222.901C49.4823 223.193 49.594 223.444 49.7057 223.695C49.7057 223.695 49.7182 223.68 49.7251 223.673Z" fill="#57606B"/>
<path d="M63.517 223.406C63.517 223.406 63.502 223.125 63.4961 222.984C63.7506 222.924 64.0109 223.005 64.409 223.246C64.5467 223.406 64.3403 223.608 64.0689 223.629C63.7976 223.65 63.517 223.406 63.517 223.406Z" fill="#5A444A"/>
<path d="M119.259 81.2782C119.621 80.663 120.066 80.1455 120.512 79.6279C120.684 79.7647 120.855 79.9016 121.027 80.0384C120.658 80.5005 120.29 80.9627 119.713 81.5009C119.504 81.5769 119.343 81.3759 119.259 81.2782Z" fill="#5A444A"/>
<path d="M112.015 82.0628C111.504 82.0376 110.98 82.0268 110.251 81.8456C110.046 81.6752 110.288 81.3775 110.417 81.2354C110.934 81.3112 111.323 81.5293 111.848 81.928C111.984 82.1087 112.003 82.0771 112.015 82.0628Z" fill="#5A444A"/>
<path d="M152.378 206.796C151.585 198.244 156.85 191.912 166.56 191.93C218.826 192.026 271.093 191.73 323.36 191.563C327.536 191.55 331.715 191.377 335.888 191.478C343.837 191.67 347.47 195.355 347.498 203.215C347.533 213.459 347.537 223.704 347.441 233.947C347.352 243.387 342.598 248.092 333.269 248.094C277.09 248.111 220.91 248.117 164.731 248.116C157.018 248.116 152.579 243.807 152.455 235.894C152.305 226.326 152.392 216.754 152.378 206.796ZM205.13 209.494C201.857 201.126 194.342 196.524 186.502 198.086C178.155 199.75 172.36 207.58 172.584 216.894C172.776 224.851 179.038 232.097 186.715 233.244C198.794 235.048 208.345 223.192 205.13 209.494ZM296.342 227.228C300.541 232.634 306.045 234.783 312.695 233.277C319.439 231.749 323.033 226.887 324.804 220.552C327.435 211.138 322.105 201.294 313.148 198.775C304.3 196.287 295.804 201.693 292.975 211.459C291.331 217.133 293.209 222.008 296.342 227.228ZM235.004 225.112C238.642 230.807 244.039 233.214 250.578 233.06C256.818 232.914 261.548 229.868 264.856 224.613C263.6 224.885 262.65 225.613 261.735 226.382C254.123 232.787 246.13 232.903 238.283 226.733C237.363 226.01 236.365 225.385 235.004 225.112Z" fill="url(#paint2_linear_349_3409)"/>
<path d="M149.163 152.764C150.316 152.204 151.695 151.692 153.075 151.69C214.178 151.62 275.28 151.589 336.383 151.594C337.762 151.594 339.142 152.066 340.581 152.626C337.831 153.028 335.019 153.199 332.208 153.202C272.6 153.259 212.992 153.298 153.384 153.326C152.053 153.326 150.721 153.146 149.163 152.764Z" fill="#303137"/>
<path d="M308.075 183.102C313.191 182.984 317.879 183.208 321.475 187.421C314.269 184.264 307.119 183.285 299.985 187.883C299.849 187.269 299.713 186.656 299.577 186.042C302.3 185.07 305.023 184.097 308.075 183.102Z" fill="#303137"/>
<path d="M181.52 183.243C185.548 183.478 189.251 183.76 192.954 184.042C192.89 184.163 192.827 184.283 192.764 184.403C186.536 185.209 180.309 186.015 174.082 186.821C173.963 186.685 173.844 186.549 173.725 186.413C176.214 185.372 178.704 184.331 181.52 183.243Z" fill="#3E3C3F"/>
<path d="M200.661 340.283C200.641 328.221 200.61 316.504 200.68 304.788C200.713 299.261 203.338 296.528 208.839 296.514C235.76 296.446 262.681 296.444 289.602 296.482C294.678 296.489 297.368 299.091 297.432 304.17C297.587 316.423 297.588 328.677 297.605 340.931C297.609 344.53 294.062 348.271 289.689 348.279C262.768 348.327 235.847 348.304 208.927 348.234C203.947 348.221 201.994 346.263 200.661 340.283ZM269.257 298.286C249.453 298.289 229.648 298.263 209.844 298.314C204.439 298.328 202.496 300.154 202.473 305.152C202.42 316.609 202.418 328.067 202.492 339.524C202.523 344.259 204.744 346.593 209.395 346.601C235.935 346.649 262.476 346.631 289.016 346.574C293.143 346.566 295.697 343.889 295.7 339.748C295.708 328.156 295.67 316.564 295.604 304.972C295.576 300.116 293.935 298.388 289.061 298.307C282.731 298.201 276.398 298.286 269.257 298.286Z" fill="#1D1B20"/>
<path d="M238.935 142.111C218.551 142.11 198.57 142.11 178.59 142.11C178.592 141.702 178.593 141.294 178.595 140.886C223.821 140.886 269.047 140.886 314.273 140.886C314.277 141.294 314.281 141.702 314.286 142.111C289.303 142.111 264.321 142.111 238.935 142.111Z" fill="#3E3C3F"/>
<path d="M205.251 209.79C208.345 223.193 198.794 235.049 186.715 233.244C179.038 232.097 172.776 224.851 172.584 216.894C172.361 207.58 178.155 199.75 186.502 198.087C194.342 196.524 201.858 201.126 205.251 209.79ZM195.826 215.408C198.686 216.499 200.393 215.22 200.596 212.484C200.658 211.642 198.823 209.838 197.959 209.9C195.158 210.102 194.793 212.271 195.277 214.653C195.303 214.781 195.383 214.899 195.826 215.408ZM181.881 214.903C180.499 214.857 178.893 214.375 177.818 214.927C177.156 215.268 176.878 217.339 177.237 218.344C177.479 219.025 179.81 219.772 180.031 219.508C180.99 218.357 181.518 216.846 181.881 214.903Z" fill="#29243A"/>
<path d="M296.161 226.993C293.209 222.007 291.33 217.133 292.975 211.459C295.804 201.692 304.3 196.287 313.148 198.775C322.105 201.294 327.435 211.137 324.804 220.552C323.033 226.887 319.439 231.749 312.695 233.276C306.045 234.783 300.541 232.634 296.161 226.993ZM319.144 210.796C317.808 211.008 316.245 210.882 315.224 211.565C314.651 211.949 314.538 213.948 315.02 214.713C315.468 215.423 317.423 216.052 317.93 215.671C318.897 214.945 319.352 213.496 319.91 212.296C320.03 212.038 319.683 211.563 319.144 210.796ZM295.04 215.451C295.848 216.563 296.485 217.93 297.556 218.654C297.943 218.916 299.98 217.793 300.174 217.026C300.436 215.986 299.652 214.681 299.316 213.489C297.971 213.954 296.627 214.418 295.04 215.451Z" fill="#29243A"/>
<path d="M235.203 224.913C236.365 225.385 237.362 226.01 238.283 226.734C246.13 232.903 254.123 232.788 261.735 226.382C262.65 225.613 263.599 224.885 264.855 224.613C261.547 229.868 256.818 232.914 250.578 233.061C244.039 233.215 238.642 230.808 235.203 224.913Z" fill="#3E3C3F"/>
<path d="M269.662 298.288C276.398 298.286 282.732 298.201 289.062 298.307C293.936 298.388 295.577 300.116 295.604 304.972C295.671 316.564 295.709 328.156 295.7 339.748C295.697 343.889 293.144 346.566 289.017 346.574C262.477 346.631 235.936 346.649 209.396 346.601C204.745 346.593 202.524 344.259 202.493 339.524C202.419 328.067 202.421 316.609 202.474 305.152C202.497 300.154 204.44 298.328 209.845 298.314C229.649 298.263 249.454 298.289 269.662 298.288ZM272.385 313.753C272.099 314.295 271.549 314.847 271.569 315.377C271.712 319.133 274.955 321.937 278.575 321.546C282.46 321.127 285.688 317.073 285.171 313.263C284.65 309.431 281.525 307.592 276.487 308.587C273.359 308.817 272.746 310.891 272.385 313.753ZM226.87 312.666C226.418 311.851 226.074 310.946 225.494 310.235C223.089 307.288 219.985 306.933 216.804 308.544C213.489 310.223 212.509 313.338 213.288 316.78C214.074 320.251 216.747 321.808 220.133 321.954C224.204 322.13 226.892 318.635 226.87 312.666ZM231.574 333.259C234.749 336.695 238.573 337.348 241.395 334.937C244.099 332.628 244.679 328.673 242.726 325.869C240.808 323.116 236.917 322.254 233.735 323.878C230.434 325.562 229.644 328.363 231.574 333.259ZM256.858 334.958C259.623 336.719 262.405 336.851 265 334.734C267.764 332.48 268.129 328.5 265.986 325.734C263.622 322.682 259.707 322.193 256.787 324.585C253.823 327.014 253.673 330.774 256.858 334.958ZM253.329 314.539C255.229 312.48 256.239 309.965 254.287 307.743C253.192 306.496 250.85 305.673 249.142 305.782C245.911 305.989 243.844 309.341 244.659 312.103C245.62 315.358 248.634 316.406 253.329 314.539Z" fill="#DEE1FB"/>
<path d="M195.632 215.215C195.383 214.899 195.303 214.781 195.277 214.653C194.793 212.271 195.158 210.102 197.959 209.9C198.822 209.838 200.658 211.642 200.596 212.484C200.392 215.22 198.685 216.499 195.632 215.215Z" fill="#F2EBED"/>
<path d="M182.042 215.184C181.519 216.846 180.99 218.357 180.031 219.508C179.811 219.772 177.48 219.025 177.237 218.344C176.878 217.339 177.156 215.268 177.818 214.927C178.893 214.375 180.499 214.857 182.042 215.184Z" fill="#F2EBED"/>
<path d="M319.348 210.992C319.683 211.563 320.03 212.038 319.91 212.296C319.352 213.496 318.897 214.945 317.93 215.671C317.423 216.052 315.468 215.424 315.02 214.713C314.538 213.948 314.651 211.95 315.224 211.566C316.245 210.882 317.808 211.009 319.348 210.992Z" fill="#F2EBED"/>
<path d="M295.161 215.167C296.627 214.419 297.972 213.954 299.316 213.489C299.652 214.681 300.437 215.986 300.174 217.027C299.98 217.793 297.944 218.916 297.556 218.654C296.485 217.93 295.849 216.563 295.161 215.167Z" fill="#F2EBED"/>
<path d="M226.922 312.994C226.892 318.635 224.204 322.13 220.133 321.954C216.747 321.808 214.074 320.25 213.288 316.78C212.509 313.338 213.489 310.223 216.804 308.544C219.985 306.933 223.088 307.287 225.494 310.235C226.074 310.946 226.418 311.85 226.922 312.994ZM222.453 318.718C225.362 314.632 224.704 310.481 220.996 310.312C219.512 310.245 217.295 311.038 216.628 312.162C215.825 313.517 215.571 316.32 216.431 317.261C217.556 318.492 220.002 318.515 222.453 318.718Z" fill="url(#paint3_linear_349_3409)"/>
<path d="M231.401 333.01C229.643 328.363 230.433 325.562 233.735 323.878C236.916 322.254 240.808 323.117 242.725 325.869C244.679 328.673 244.098 332.629 241.395 334.937C238.572 337.348 234.749 336.695 231.401 333.01ZM241.504 327.55C240.068 324.806 237.581 323.994 235.09 325.25C233.745 325.927 232.13 328.412 232.462 329.544C233.009 331.405 234.741 333.534 236.51 334.284C239.773 335.668 241.942 332.892 241.504 327.55Z" fill="#303137"/>
<path d="M277.134 308.535C281.525 307.592 284.65 309.431 285.171 313.263C285.688 317.073 282.46 321.127 278.575 321.546C274.955 321.937 271.712 319.133 271.569 315.377C271.549 314.847 272.099 314.295 272.614 313.813C272.842 313.872 272.948 314.219 272.986 314.503C273.589 315.694 273.947 316.963 274.763 317.428C276.158 318.222 278.065 319.226 279.338 318.821C280.703 318.387 281.584 316.429 282.712 314.828C282.28 311.206 280.116 309.486 277.134 308.535Z" fill="url(#paint4_linear_349_3409)"/>
<path d="M256.624 334.739C253.672 330.774 253.822 327.014 256.787 324.585C259.706 322.193 263.621 322.682 265.986 325.734C268.129 328.5 267.764 332.48 265 334.734C262.405 336.851 259.623 336.719 256.624 334.739ZM258.749 333.845C260.566 333.576 262.891 333.913 264.092 332.907C266.362 331.007 265.982 328.355 263.979 326.175C262.057 324.085 259.987 324.354 257.987 326.107C255.441 328.338 255.511 330.562 258.749 333.845Z" fill="#303137"/>
<path d="M253.087 314.745C248.633 316.406 245.62 315.358 244.659 312.103C243.843 309.341 245.911 305.989 249.142 305.782C250.85 305.673 253.191 306.496 254.286 307.743C256.239 309.966 255.229 312.48 253.087 314.745ZM249.225 314.318C250.623 313.349 252.113 312.479 253.339 311.328C253.577 311.104 252.956 309.236 252.441 309.078C251.036 308.649 249.12 308.106 248.042 308.722C244.653 310.659 246.931 312.483 249.225 314.318Z" fill="url(#paint5_linear_349_3409)"/>
<path d="M276.81 308.561C280.116 309.485 282.28 311.206 282.388 314.84C279.002 314.847 275.975 314.533 272.948 314.219C272.948 314.219 272.842 313.872 272.862 313.692C272.746 310.891 273.359 308.817 276.81 308.561Z" fill="#F2EBED"/>
<path d="M222.167 318.888C220.002 318.515 217.555 318.493 216.431 317.261C215.571 316.321 215.825 313.517 216.628 312.162C217.295 311.039 219.511 310.245 220.996 310.313C224.704 310.481 225.362 314.632 222.167 318.888Z" fill="#29243A"/>
<path d="M241.623 327.835C241.941 332.892 239.773 335.668 236.51 334.284C234.741 333.534 233.009 331.405 232.462 329.544C232.129 328.411 233.745 325.927 235.089 325.249C237.581 323.994 240.068 324.805 241.623 327.835Z" fill="#DEE1FB"/>
<path d="M272.985 314.503C275.974 314.533 279.001 314.847 282.352 315.149C281.583 316.429 280.702 318.387 279.337 318.821C278.065 319.226 276.157 318.222 274.763 317.428C273.946 316.963 273.588 315.694 272.985 314.503Z" fill="#1D1B20"/>
<path d="M258.463 333.722C255.511 330.562 255.441 328.337 257.987 326.106C259.987 324.354 262.057 324.084 263.979 326.174C265.982 328.354 266.362 331.006 264.092 332.906C262.891 333.912 260.566 333.575 258.463 333.722Z" fill="#DEE1FB"/>
<path d="M248.923 314.24C246.93 312.483 244.653 310.659 248.042 308.721C249.119 308.105 251.035 308.648 252.44 309.078C252.956 309.235 253.577 311.104 253.339 311.327C252.112 312.478 250.623 313.349 248.923 314.24Z" fill="#303137"/>
<path d="M194.868 320.69C194.668 325.043 194.108 329.334 193.204 333.45L154.905 344.659L154.093 344.896C153.82 344.978 153.544 345.019 153.266 345.02C153.013 345.021 152.761 344.983 152.512 344.907H152.503C151.562 344.62 150.696 343.889 150.016 342.807C149.318 341.702 148.85 340.277 148.675 338.728C148.5 337.179 148.627 335.58 149.039 334.152C149.151 333.765 149.282 333.394 149.431 333.041L168.107 303.043L133.457 313.119H133.416C133.613 308.972 134.137 304.881 134.975 300.946L135.085 300.439L174.693 288.83L175.862 288.49C176.31 288.36 176.768 288.356 177.216 288.48C178.185 288.76 179.078 289.506 179.777 290.621C180.476 291.736 180.947 293.165 181.128 294.72C181.264 295.929 181.219 297.173 180.997 298.349C180.775 299.525 180.382 300.599 179.851 301.483L179.668 301.776L161.669 330.409L194.868 320.69Z" fill="white"/>
<ellipse cx="435" cy="204.5" rx="26" ry="24.5" fill="#FEE2E2"/>
<ellipse cx="54" cy="232.5" rx="26" ry="24.5" fill="#FEE2E2"/>
<ellipse cx="66" cy="145.5" rx="26" ry="24.5" fill="#FEE2E2"/>
<ellipse cx="114" cy="81.5" rx="26" ry="24.5" fill="#FEE2E2"/>
<ellipse cx="165" cy="27.5" rx="26" ry="24.5" fill="#FEE2E2"/>
<ellipse cx="248" cy="35.5" rx="26" ry="24.5" fill="#FEE2E2"/>
<ellipse cx="335" cy="27.5" rx="26" ry="24.5" fill="#FEE2E2"/>
<ellipse cx="379" cy="82.5" rx="26" ry="24.5" fill="#FEE2E2"/>
<ellipse cx="428" cy="126.5" rx="26" ry="24.5" fill="#FEE2E2"/>
<ellipse cx="438" cy="286.5" rx="26" ry="24.5" fill="#FEE2E2"/>
<path d="M453.709 290.376C454.326 289.76 454.815 289.028 455.148 288.222C455.481 287.416 455.652 286.552 455.649 285.68C455.649 282.012 452.665 279.027 448.996 279.027H445.244C444.845 275.719 442.025 273.146 438.609 273.146H438.233C434.865 273.146 432.069 275.652 431.615 278.898L427.928 278.94C426.177 278.96 424.505 279.67 423.273 280.915C422.042 282.161 421.352 283.841 421.352 285.593V285.756C421.352 287.52 422.052 289.212 423.3 290.46C424.547 291.708 426.239 292.409 428.003 292.409H428.028L428.752 292.406L424.433 297.173C424.049 297.099 423.651 297.153 423.3 297.326C422.948 297.499 422.663 297.781 422.487 298.131C422.312 298.481 422.255 298.879 422.326 299.264C422.397 299.649 422.591 300 422.88 300.264C423.169 300.529 423.536 300.691 423.926 300.728C424.316 300.764 424.707 300.672 425.04 300.466C425.373 300.26 425.629 299.95 425.77 299.585C425.911 299.22 425.929 298.819 425.821 298.442L431.297 292.398L437.56 292.375V297.406C437.227 297.611 436.969 297.919 436.827 298.284C436.684 298.648 436.665 299.049 436.771 299.426C436.878 299.803 437.104 300.134 437.416 300.371C437.728 300.607 438.109 300.735 438.5 300.735C438.892 300.735 439.273 300.607 439.585 300.371C439.897 300.134 440.123 299.803 440.23 299.426C440.336 299.049 440.316 298.648 440.174 298.284C440.032 297.919 439.774 297.611 439.44 297.406V292.368L445.617 292.345L451.19 298.431C451.08 298.807 451.094 299.209 451.233 299.576C451.372 299.943 451.626 300.254 451.958 300.463C452.29 300.672 452.681 300.766 453.071 300.732C453.462 300.699 453.831 300.538 454.122 300.276C454.413 300.013 454.61 299.662 454.683 299.277C454.757 298.892 454.703 298.494 454.529 298.142C454.355 297.791 454.071 297.506 453.72 297.331C453.37 297.155 452.971 297.099 452.586 297.171L448.158 292.336L449.02 292.333C449.892 292.332 450.756 292.159 451.56 291.823C452.365 291.487 453.095 290.995 453.709 290.376ZM428.022 290.529H428.004C427.377 290.529 426.757 290.405 426.178 290.166C425.598 289.926 425.072 289.574 424.629 289.131C424.186 288.688 423.835 288.162 423.595 287.583C423.355 287.003 423.232 286.383 423.232 285.756V285.593C423.232 284.336 423.727 283.131 424.61 282.237C425.493 281.344 426.693 280.835 427.949 280.82L432.501 280.766C432.749 280.763 432.985 280.663 433.159 280.487C433.333 280.311 433.431 280.074 433.431 279.826C433.432 278.553 433.939 277.333 434.839 276.433C435.74 275.533 436.96 275.027 438.233 275.026H438.609C439.882 275.027 441.103 275.533 442.003 276.433C442.903 277.333 443.41 278.553 443.411 279.826V279.967C443.411 280.216 443.511 280.455 443.687 280.632C443.863 280.808 444.102 280.907 444.351 280.907H448.996C450.262 280.905 451.477 281.405 452.374 282.299C453.271 283.192 453.776 284.405 453.778 285.671C453.78 286.937 453.28 288.152 452.386 289.049C451.493 289.945 450.28 290.45 449.014 290.453L428.022 290.529Z" fill="url(#paint6_linear_349_3409)"/>
<path d="M344.416 14.8451C344.379 14.6133 344.252 14.4056 344.062 14.2677C343.872 14.1297 343.635 14.0729 343.403 14.1097C343.171 14.1465 342.964 14.2738 342.826 14.4637C342.688 14.6537 342.631 14.8906 342.668 15.1224L342.766 15.7425C340.214 14.2106 337.287 13.4181 334.31 13.4533C331.334 13.4885 328.427 14.3501 325.912 15.9419C325.647 16.1096 325.46 16.3754 325.392 16.681C325.323 16.9865 325.379 17.3068 325.547 17.5712C325.714 17.8357 325.98 18.0227 326.286 18.0911C326.591 18.1595 326.912 18.1038 327.176 17.9361C329.292 16.5978 331.734 15.8647 334.237 15.8164C336.74 15.7682 339.208 16.4066 341.374 17.6624L340.754 17.7591C340.534 17.7936 340.335 17.9098 340.197 18.0847C340.059 18.2596 339.991 18.4802 340.009 18.7024C340.026 18.9247 340.127 19.1322 340.29 19.2835C340.454 19.4348 340.669 19.5187 340.892 19.5185C340.938 19.5183 340.985 19.5145 341.031 19.5073L344.182 19.0082C344.413 18.9709 344.62 18.8433 344.758 18.6534C344.895 18.4634 344.952 18.2267 344.915 17.9951L344.416 14.8451Z" fill="url(#paint7_linear_349_3409)"/>
<path d="M341.824 41.0637C339.63 42.4516 337.087 43.1876 334.491 43.186C331.895 43.1844 329.353 42.4454 327.161 41.0549C327.03 40.968 326.883 40.908 326.729 40.8785C326.575 40.849 326.416 40.8505 326.263 40.883C326.109 40.9155 325.964 40.9783 325.835 41.0678C325.706 41.1572 325.596 41.2715 325.512 41.4039C325.427 41.5364 325.37 41.6843 325.344 41.839C325.318 41.9937 325.322 42.1522 325.358 42.305C325.393 42.4579 325.459 42.6021 325.551 42.7293C325.643 42.8564 325.76 42.964 325.894 43.0455C328.464 44.6769 331.445 45.5441 334.49 45.546C337.534 45.5479 340.516 44.6844 343.088 43.0562C343.222 42.9743 343.337 42.8667 343.429 42.7398C343.52 42.6128 343.585 42.4689 343.62 42.3165C343.656 42.1642 343.66 42.0063 343.634 41.8521C343.607 41.6979 343.551 41.5505 343.467 41.4184C343.383 41.2864 343.274 41.1723 343.146 41.0828C343.017 40.9933 342.873 40.9303 342.72 40.8973C342.567 40.8643 342.409 40.862 342.255 40.8906C342.101 40.9191 341.955 40.978 341.824 41.0637Z" fill="url(#paint8_linear_349_3409)"/>
<path d="M322.571 20.5469C322.306 20.3793 321.986 20.3234 321.681 20.3917C321.376 20.46 321.11 20.6467 320.942 20.9109C319.318 23.4775 318.454 26.4521 318.452 29.4896C318.45 32.5271 319.309 35.5029 320.93 38.0717C321.013 38.2026 321.121 38.3159 321.248 38.4052C321.375 38.4944 321.518 38.5579 321.669 38.5918C321.82 38.6258 321.977 38.6296 322.129 38.6032C322.282 38.5767 322.428 38.5204 322.559 38.4375C322.69 38.3546 322.803 38.2467 322.892 38.12C322.982 37.9933 323.045 37.8502 323.079 37.699C323.113 37.5478 323.117 37.3914 323.09 37.2387C323.064 37.086 323.008 36.94 322.925 36.8091C321.543 34.6186 320.811 32.0814 320.812 29.4917C320.814 26.902 321.55 24.3658 322.934 22.1771C323.017 22.0462 323.074 21.9002 323.101 21.7474C323.128 21.5946 323.124 21.438 323.09 21.2866C323.057 21.1352 322.993 20.9919 322.904 20.865C322.815 20.7381 322.702 20.63 322.571 20.5469Z" fill="url(#paint9_linear_349_3409)"/>
<path d="M346.418 20.5315C346.154 20.6996 345.968 20.9656 345.9 21.2711C345.832 21.5766 345.888 21.8965 346.056 22.1605C347.447 24.3528 348.186 26.895 348.187 29.491C348.188 32.087 347.452 34.63 346.064 36.8238C345.978 36.9546 345.92 37.1012 345.891 37.2549C345.862 37.4087 345.865 37.5666 345.898 37.7195C345.931 37.8724 345.994 38.0172 346.083 38.1455C346.173 38.2738 346.287 38.383 346.419 38.4669C346.551 38.5507 346.698 38.6074 346.852 38.6337C347.007 38.66 347.165 38.6554 347.317 38.6202C347.469 38.585 347.613 38.5198 347.74 38.4284C347.867 38.3371 347.975 38.2214 348.057 38.0881C349.685 35.5158 350.548 32.5337 350.546 29.4894C350.545 26.4451 349.677 23.4641 348.046 20.8938C347.878 20.63 347.612 20.4438 347.307 20.3758C347.002 20.3079 346.682 20.3639 346.418 20.5315Z" fill="url(#paint10_linear_349_3409)"/>
<path d="M252.497 34.6259C252.224 34.7837 252.003 35.019 251.864 35.3022C251.724 35.5853 251.672 35.9035 251.713 36.2165C251.754 36.5294 251.887 36.8232 252.095 37.0605C252.304 37.2978 252.577 37.4681 252.882 37.5498C253.187 37.6315 253.51 37.6209 253.808 37.5193C254.107 37.4178 254.37 37.2299 254.562 36.9794C254.754 36.7289 254.867 36.4271 254.888 36.1121C254.908 35.797 254.835 35.483 254.677 35.2097C254.465 34.8433 254.117 34.5759 253.708 34.4664C253.299 34.357 252.864 34.4143 252.497 34.6259Z" fill="url(#paint11_linear_349_3409)"/>
<path d="M259.424 47.9636V26.9514C259.424 23.6267 256.675 20.9219 253.296 20.9219C249.916 20.9219 247.167 23.6267 247.167 26.9514V45.0492C247.167 47.4474 245.171 49.3983 242.718 49.3983C240.265 49.3983 238.269 47.4474 238.269 45.0492V24.0416C238.562 23.8564 238.788 23.5805 238.91 23.2558C239.033 22.931 239.046 22.5751 238.949 22.2421C238.851 21.909 238.647 21.6169 238.368 21.41C238.089 21.2032 237.751 21.0929 237.404 21.0958C237.057 21.0988 236.72 21.2148 236.445 21.4264C236.169 21.638 235.971 21.9335 235.879 22.2682C235.786 22.6029 235.806 22.9585 235.934 23.2811C236.062 23.6037 236.292 23.8757 236.589 24.0559V45.0492C236.589 48.3735 239.338 51.0779 242.718 51.0779C246.098 51.0779 248.847 48.3731 248.847 45.0488V26.9514C248.847 24.5528 250.842 22.6019 253.296 22.6019C255.749 22.6019 257.744 24.5528 257.744 26.9514V47.9699C257.45 48.1535 257.223 48.4282 257.099 48.7523C256.974 49.0764 256.959 49.4323 257.055 49.7658C257.151 50.0994 257.353 50.3926 257.631 50.6009C257.909 50.8092 258.247 50.9213 258.594 50.9202C258.941 50.9191 259.278 50.8048 259.555 50.5947C259.831 50.3846 260.031 50.0901 260.125 49.7559C260.219 49.4217 260.201 49.066 260.075 48.7427C259.948 48.4194 259.72 48.1462 259.424 47.9644V47.9636Z" fill="url(#paint12_linear_349_3409)"/>
<path d="M175.127 14.7296C174.968 14.8885 174.842 15.0773 174.756 15.2849C174.67 15.4926 174.625 15.7153 174.625 15.9401C174.625 16.1649 174.67 16.3875 174.756 16.5952C174.842 16.8029 174.968 16.9916 175.127 17.1505L175.139 17.1617L170.741 33.5447L170.728 33.5486L161.469 24.2894C161.553 23.9994 161.56 23.6922 161.487 23.3989C161.415 23.1057 161.266 22.8369 161.056 22.6198C160.846 22.4027 160.582 22.245 160.291 22.1628C160.001 22.0806 159.693 22.0768 159.401 22.1517C159.108 22.2267 158.84 22.3778 158.625 22.5896C158.41 22.8014 158.254 23.0664 158.174 23.3578C158.095 23.6491 158.093 23.9564 158.171 24.2484C158.248 24.5404 158.401 24.8068 158.615 25.0204L158.627 25.0316L154.229 41.4146C153.864 41.5096 153.541 41.7221 153.31 42.0192C153.078 42.3163 152.951 42.6815 152.948 43.0581C152.945 43.4348 153.067 43.8019 153.293 44.1027C153.52 44.4035 153.839 44.6212 154.202 44.722C154.565 44.8229 154.951 44.8013 155.301 44.6606C155.65 44.5199 155.943 44.2679 156.135 43.9437C156.327 43.6195 156.406 43.2411 156.361 42.8672C156.316 42.4932 156.149 42.1445 155.886 41.8751L160.275 25.5273L169.517 34.7698C169.441 35.0594 169.443 35.3637 169.522 35.6524C169.6 35.9411 169.753 36.2042 169.965 36.4154C170.177 36.6265 170.441 36.7784 170.73 36.8559C171.019 36.9333 171.324 36.9337 171.613 36.8569C171.902 36.7801 172.166 36.6288 172.379 36.4181C172.591 36.2075 172.745 35.9448 172.824 35.6562C172.904 35.3677 172.906 35.0634 172.831 34.7736C172.756 34.4838 172.607 34.2188 172.398 34.0048L176.806 17.5887C177.057 17.5171 177.289 17.3889 177.483 17.2138C177.678 17.0388 177.829 16.8216 177.926 16.5789C178.024 16.3362 178.064 16.0744 178.044 15.8137C178.025 15.553 177.946 15.3003 177.813 15.0749C177.681 14.8495 177.498 14.6575 177.28 14.5135C177.062 14.3695 176.813 14.2774 176.554 14.2443C176.295 14.2111 176.031 14.2379 175.784 14.3224C175.537 14.4069 175.312 14.5469 175.127 14.7318V14.7296Z" fill="url(#paint13_linear_349_3409)"/>
<path d="M389.34 97.2529H367.684C367.456 97.2529 367.237 97.3435 367.076 97.5048C366.915 97.6661 366.824 97.8848 366.824 98.1129C366.824 98.341 366.915 98.5598 367.076 98.721C367.237 98.8823 367.456 98.9729 367.684 98.9729H389.34C389.568 98.9729 389.787 98.8823 389.948 98.721C390.11 98.5598 390.2 98.341 390.2 98.1129C390.2 97.8848 390.11 97.6661 389.948 97.5048C389.787 97.3435 389.568 97.2529 389.34 97.2529Z" fill="url(#paint14_linear_349_3409)"/>
<path d="M389.34 78.8344H380.576L386.774 72.6373C386.854 72.5574 386.917 72.4626 386.96 72.3582C387.003 72.2539 387.026 72.142 387.026 72.029C387.026 71.9161 387.003 71.8042 386.96 71.6999C386.917 71.5955 386.854 71.5007 386.774 71.4208C386.694 71.3409 386.599 71.2776 386.495 71.2343C386.39 71.1911 386.278 71.1689 386.166 71.1689C386.053 71.1689 385.941 71.1911 385.836 71.2343C385.732 71.2776 385.637 71.3409 385.557 71.4208L379.36 77.618V68.8541C379.36 68.6261 379.269 68.4073 379.108 68.246C378.947 68.0847 378.728 67.9941 378.5 67.9941C378.272 67.9941 378.053 68.0847 377.892 68.246C377.731 68.4073 377.64 68.6261 377.64 68.8541V77.6184L371.443 71.4208C371.282 71.2595 371.063 71.1689 370.835 71.1689C370.607 71.1689 370.388 71.2595 370.226 71.4208C370.065 71.5821 369.975 71.8009 369.975 72.029C369.975 72.2572 370.065 72.476 370.226 72.6373L376.424 78.8344H367.66C367.432 78.8344 367.213 78.925 367.052 79.0863C366.89 79.2476 366.8 79.4664 366.8 79.6944C366.8 79.9225 366.89 80.1413 367.052 80.3026C367.213 80.4638 367.432 80.5544 367.66 80.5544H376.424L370.226 86.7516C370.065 86.9129 369.975 87.1317 369.975 87.3598C369.975 87.5879 370.065 87.8066 370.227 87.9679C370.388 88.1291 370.607 88.2197 370.835 88.2196C371.063 88.2196 371.282 88.129 371.443 87.9676L377.64 81.7705V90.5347C377.64 90.7628 377.731 90.9816 377.892 91.1429C378.053 91.3041 378.272 91.3947 378.5 91.3947C378.728 91.3947 378.947 91.3041 379.108 91.1429C379.269 90.9816 379.36 90.7628 379.36 90.5347V81.7705L385.557 87.9676C385.719 88.129 385.937 88.2196 386.165 88.2196C386.393 88.2197 386.612 88.1291 386.774 87.9679C386.935 87.8066 387.025 87.5879 387.026 87.3598C387.026 87.1317 386.935 86.9129 386.774 86.7516L380.576 80.5544H389.34C389.568 80.5544 389.787 80.4638 389.949 80.3026C390.11 80.1413 390.2 79.9225 390.2 79.6944C390.2 79.4664 390.11 79.2476 389.949 79.0863C389.787 78.925 389.568 78.8344 389.34 78.8344Z" fill="url(#paint15_linear_349_3409)"/>
<path d="M439.183 137.678V130.924C439.183 127.463 436.366 124.646 432.905 124.646H428.36V113.323C428.672 113.135 428.914 112.85 429.048 112.511C429.183 112.173 429.203 111.799 429.106 111.448C429.008 111.097 428.798 110.788 428.508 110.567C428.218 110.347 427.864 110.228 427.5 110.228C427.135 110.228 426.781 110.347 426.491 110.567C426.201 110.788 425.991 111.097 425.893 111.448C425.796 111.799 425.816 112.173 425.951 112.511C426.085 112.85 426.327 113.135 426.64 113.323V124.646H422.095C418.633 124.646 415.817 127.463 415.817 130.924V137.661C415.505 137.849 415.263 138.134 415.128 138.473C414.993 138.811 414.973 139.185 415.071 139.536C415.168 139.887 415.378 140.196 415.668 140.417C415.958 140.637 416.313 140.757 416.677 140.757C417.041 140.757 417.396 140.637 417.686 140.417C417.976 140.196 418.186 139.887 418.283 139.536C418.381 139.185 418.361 138.811 418.226 138.473C418.091 138.134 417.849 137.849 417.537 137.661V130.924C417.538 129.716 418.019 128.558 418.874 127.703C419.728 126.849 420.886 126.368 422.095 126.366H426.64V137.661C426.327 137.849 426.085 138.134 425.951 138.473C425.816 138.811 425.796 139.185 425.893 139.536C425.991 139.887 426.201 140.196 426.491 140.417C426.781 140.637 427.135 140.757 427.5 140.757C427.864 140.757 428.218 140.637 428.508 140.417C428.798 140.196 429.008 139.887 429.106 139.536C429.203 139.185 429.183 138.811 429.048 138.473C428.914 138.134 428.672 137.849 428.36 137.661V126.366H432.904C434.113 126.367 435.271 126.848 436.126 127.703C436.98 128.557 437.461 129.716 437.462 130.924V137.678C437.15 137.866 436.908 138.151 436.773 138.49C436.638 138.828 436.618 139.202 436.716 139.553C436.813 139.904 437.023 140.214 437.313 140.434C437.603 140.655 437.958 140.774 438.322 140.774C438.687 140.774 439.041 140.655 439.331 140.434C439.621 140.214 439.831 139.904 439.929 139.553C440.026 139.202 440.006 138.828 439.871 138.49C439.737 138.151 439.494 137.866 439.182 137.678H439.183Z" fill="url(#paint16_linear_349_3409)"/>
<path d="M116.98 95.9784H109.6C109.372 95.9784 109.154 95.8877 108.992 95.7265C108.831 95.5652 108.74 95.3464 108.74 95.1184V90.9697C106.375 89.8768 104.459 88.0031 103.312 85.6636C102.165 83.3241 101.859 80.6613 102.444 78.1225C103.029 75.5837 104.47 73.3237 106.525 71.7221C108.58 70.1205 111.124 69.2749 113.729 69.3275C116.334 69.3801 118.841 70.3275 120.83 72.0107C122.818 73.6939 124.167 76.0102 124.649 78.5705C125.132 81.1309 124.718 83.7792 123.478 86.0705C122.238 88.3619 120.247 90.1567 117.84 91.1533V95.1184C117.84 95.3464 117.749 95.5652 117.588 95.7265C117.427 95.8877 117.208 95.9784 116.98 95.9784ZM110.46 94.2584H116.12V90.5634C116.12 90.3852 116.175 90.2115 116.278 90.0661C116.381 89.9208 116.527 89.811 116.695 89.752C118.821 89.0037 120.617 87.5329 121.77 85.5961C122.923 83.6593 123.36 81.3793 123.004 79.1536C122.648 76.9279 121.522 74.8977 119.823 73.4169C118.123 71.9361 115.958 71.0987 113.705 71.0506C111.451 71.0026 109.253 71.7469 107.492 73.1539C105.731 74.5609 104.52 76.5413 104.069 78.7498C103.619 80.9583 103.958 83.2548 105.027 85.239C106.096 87.2232 107.828 88.7692 109.92 89.6075C110.08 89.6714 110.216 89.7815 110.313 89.9238C110.409 90.066 110.46 90.2338 110.46 90.4056V94.2584Z" fill="url(#paint17_linear_349_3409)"/>
<path d="M116.765 99.8938H109.385C109.157 99.8938 108.939 99.8032 108.777 99.6419C108.616 99.4807 108.525 99.2619 108.525 99.0338C108.525 98.8057 108.616 98.587 108.777 98.4257C108.939 98.2644 109.157 98.1738 109.385 98.1738H116.765C116.993 98.1738 117.212 98.2644 117.373 98.4257C117.534 98.587 117.625 98.8057 117.625 99.0338C117.625 99.2619 117.534 99.4807 117.373 99.6419C117.212 99.8032 116.993 99.8938 116.765 99.8938Z" fill="url(#paint18_linear_349_3409)"/>
<path d="M436.5 189.753C436.272 189.753 436.053 189.844 435.892 190.005C435.73 190.166 435.64 190.385 435.64 190.613V220.464C435.64 220.692 435.73 220.91 435.892 221.072C436.053 221.233 436.272 221.324 436.5 221.324C436.728 221.324 436.946 221.233 437.108 221.072C437.269 220.91 437.36 220.692 437.36 220.464V190.613C437.36 190.385 437.269 190.166 437.108 190.005C436.946 189.844 436.728 189.753 436.5 189.753Z" fill="url(#paint19_linear_349_3409)"/>
<path d="M445.794 198.81C445.714 198.731 445.62 198.667 445.515 198.624C445.411 198.581 445.299 198.559 445.186 198.559C445.073 198.559 444.961 198.581 444.857 198.624C444.753 198.667 444.658 198.731 444.578 198.811C444.498 198.89 444.435 198.985 444.392 199.09C444.348 199.194 444.326 199.306 444.326 199.419C444.326 199.532 444.348 199.644 444.392 199.748C444.435 199.852 444.498 199.947 444.578 200.027L450.095 205.543L444.578 211.06C444.417 211.221 444.326 211.44 444.326 211.668C444.326 211.896 444.417 212.115 444.578 212.276C444.739 212.437 444.958 212.528 445.186 212.528C445.414 212.528 445.633 212.438 445.794 212.276L451.919 206.152C451.999 206.072 452.062 205.977 452.106 205.873C452.149 205.768 452.171 205.657 452.171 205.544C452.171 205.431 452.149 205.319 452.106 205.214C452.062 205.11 451.999 205.015 451.919 204.935L445.794 198.81Z" fill="url(#paint20_linear_349_3409)"/>
<path d="M428.379 198.81C428.218 198.649 427.999 198.559 427.771 198.559C427.543 198.559 427.324 198.649 427.163 198.81L421.038 204.935C420.958 205.015 420.895 205.11 420.852 205.214C420.808 205.319 420.786 205.431 420.786 205.544C420.786 205.657 420.808 205.768 420.852 205.873C420.895 205.977 420.958 206.072 421.038 206.152L427.163 212.277C427.324 212.438 427.543 212.529 427.771 212.528C427.999 212.528 428.218 212.438 428.379 212.276C428.541 212.115 428.631 211.896 428.631 211.668C428.631 211.44 428.54 211.221 428.379 211.06L422.862 205.543L428.379 200.026C428.54 199.865 428.631 199.646 428.631 199.418C428.631 199.19 428.54 198.972 428.379 198.81Z" fill="url(#paint21_linear_349_3409)"/>
<path d="M79.1291 134.809C78.9302 134.633 78.6697 134.544 78.4048 134.561C78.14 134.577 77.8925 134.698 77.7169 134.897C77.5412 135.096 77.4518 135.356 77.4683 135.621C77.4847 135.886 77.6057 136.133 77.8046 136.309C79.0221 137.39 79.9966 138.717 80.6638 140.202C81.3311 141.687 81.6758 143.297 81.6754 144.925C81.675 146.554 81.3294 148.163 80.6614 149.648C79.9934 151.133 79.0182 152.459 77.8001 153.54C77.7016 153.627 77.6212 153.732 77.5635 153.85C77.5058 153.968 77.472 154.097 77.4638 154.228C77.4557 154.359 77.4735 154.49 77.5162 154.615C77.5589 154.739 77.6256 154.854 77.7126 154.952C77.7996 155.051 77.9052 155.131 78.0232 155.189C78.1413 155.246 78.2696 155.28 78.4007 155.288C78.5319 155.297 78.6634 155.279 78.7877 155.236C78.912 155.193 79.0266 155.127 79.1251 155.04C80.5568 153.772 81.7031 152.215 82.4884 150.472C83.2737 148.729 83.6801 146.839 83.6807 144.927C83.6812 143.015 83.276 141.124 82.4917 139.381C81.7075 137.637 80.562 136.079 79.1311 134.811L79.1291 134.809Z" fill="url(#paint22_linear_349_3409)"/>
<path d="M73.8203 155.831C71.7541 156.52 69.535 156.608 67.4203 156.087C70.3295 154.106 72.3517 151.069 73.0573 147.621C73.1076 147.363 73.0537 147.095 72.9073 146.875C72.7609 146.656 72.5339 146.504 72.2757 146.451C72.0175 146.398 71.7488 146.45 71.5283 146.594C71.3077 146.738 71.153 146.964 71.0978 147.221C70.7716 148.816 70.1109 150.323 69.1595 151.644C68.2081 152.964 66.9876 154.068 65.5783 154.882C65.3883 154.992 65.1957 155.096 65.0003 155.194C64.8053 155.096 64.6127 154.992 64.4223 154.882C63.013 154.068 61.7924 152.964 60.841 151.643C59.8896 150.323 59.229 148.815 58.9028 147.22C58.8477 146.963 58.693 146.737 58.4724 146.593C58.2518 146.449 57.9832 146.397 57.725 146.45C57.4667 146.503 57.2397 146.655 57.0934 146.874C56.947 147.094 56.8931 147.362 56.9433 147.62C57.6493 151.069 59.6725 154.107 62.5828 156.087C60.4682 156.608 58.249 156.52 56.1828 155.831C55.9324 155.751 55.6605 155.773 55.4261 155.892C55.1916 156.011 55.0135 156.218 54.9303 156.467C54.8471 156.716 54.8655 156.989 54.9814 157.225C55.0973 157.461 55.3016 157.641 55.5498 157.728C58.6376 158.758 61.9933 158.639 65.0003 157.393C68.0081 158.64 71.3649 158.759 74.4533 157.728C74.7016 157.641 74.9058 157.461 75.0218 157.225C75.1377 156.989 75.1561 156.716 75.0729 156.467C74.9896 156.218 74.8115 156.011 74.5771 155.892C74.3427 155.773 74.0708 155.751 73.8203 155.831Z" fill="url(#paint23_linear_349_3409)"/>
<path d="M56.1822 134.005C58.2488 133.318 60.4679 133.23 62.5822 133.752C59.6694 135.733 57.6444 138.773 56.9382 142.224C56.8853 142.484 56.9377 142.754 57.084 142.975C57.2303 143.196 57.4584 143.35 57.7182 143.403C57.784 143.417 57.8511 143.424 57.9182 143.424C58.1485 143.423 58.3716 143.344 58.5499 143.198C58.7282 143.052 58.8507 142.849 58.8967 142.624C59.2462 140.919 59.9767 139.316 61.0337 137.935C62.0906 136.553 63.4465 135.428 64.9997 134.645C66.5524 135.428 67.9077 136.553 68.9641 137.935C70.0204 139.317 70.7506 140.919 71.0998 142.623C71.1458 142.849 71.2683 143.052 71.4466 143.197C71.6249 143.343 71.848 143.423 72.0783 143.423C72.1454 143.423 72.2125 143.416 72.2783 143.403C72.5381 143.35 72.7662 143.196 72.9125 142.974C73.0588 142.753 73.1112 142.483 73.0583 142.223C72.3526 138.773 70.3286 135.734 67.4168 133.752C69.5311 133.23 71.7502 133.318 73.8168 134.005C73.9419 134.05 74.0747 134.069 74.2074 134.061C74.34 134.054 74.4699 134.02 74.5893 133.962C74.7088 133.904 74.8155 133.823 74.9031 133.723C74.9908 133.623 75.0577 133.507 75.0999 133.381C75.1421 133.255 75.1588 133.122 75.149 132.989C75.1392 132.857 75.1031 132.727 75.0428 132.609C74.9825 132.491 74.8993 132.386 74.7979 132.3C74.6965 132.214 74.579 132.149 74.4523 132.109C71.5221 131.134 68.3465 131.189 65.4522 132.267C65.3022 132.324 65.1482 132.384 64.9977 132.447C64.8477 132.384 64.6977 132.324 64.5432 132.267C61.649 131.189 58.4734 131.134 55.5432 132.109C55.4165 132.149 55.299 132.214 55.1976 132.3C55.0962 132.386 55.013 132.491 54.9527 132.609C54.8924 132.727 54.8563 132.857 54.8465 132.989C54.8367 133.122 54.8534 133.255 54.8956 133.381C54.9378 133.507 55.0047 133.623 55.0924 133.723C55.18 133.823 55.2867 133.904 55.4062 133.962C55.5256 134.02 55.6555 134.054 55.7881 134.061C55.9208 134.069 56.0536 134.05 56.1787 134.005H56.1822Z" fill="url(#paint24_linear_349_3409)"/>
<path d="M52.1995 153.539C50.9802 152.459 50.0039 151.133 49.335 149.648C48.6662 148.163 48.32 146.553 48.3194 144.925C48.3188 143.296 48.6637 141.686 49.3315 140.2C49.9992 138.715 50.9745 137.388 52.193 136.307C52.2915 136.22 52.3719 136.115 52.4296 135.997C52.4873 135.879 52.5212 135.75 52.5294 135.619C52.5375 135.488 52.5198 135.357 52.4771 135.232C52.4345 135.108 52.3677 134.993 52.2808 134.895C52.1938 134.796 52.0883 134.716 51.9703 134.658C51.8522 134.601 51.724 134.567 51.5928 134.559C51.4617 134.55 51.3302 134.568 51.206 134.611C51.0817 134.653 50.967 134.72 50.8685 134.807C49.4386 136.076 48.294 137.634 47.5103 139.377C46.7266 141.121 46.3217 143.011 46.3223 144.923C46.3228 146.834 46.7289 148.724 47.5136 150.468C48.2983 152.211 49.4438 153.768 50.8745 155.036C50.973 155.123 51.0877 155.189 51.212 155.232C51.3363 155.275 51.4677 155.293 51.5989 155.284C51.7301 155.276 51.8583 155.242 51.9764 155.185C52.0945 155.127 52.2 155.047 52.287 154.948C52.374 154.85 52.4408 154.735 52.4835 154.611C52.5262 154.486 52.5439 154.355 52.5358 154.224C52.5277 154.093 52.4938 153.964 52.4361 153.846C52.3784 153.728 52.298 153.623 52.1995 153.536V153.539Z" fill="url(#paint25_linear_349_3409)"/>
<path d="M64.8506 245.869H42.149C41.9103 245.869 41.6814 245.964 41.5126 246.133C41.3438 246.302 41.249 246.53 41.249 246.769C41.249 247.008 41.3438 247.237 41.5126 247.406C41.6814 247.574 41.9103 247.669 42.149 247.669H64.8506C65.0893 247.669 65.3182 247.574 65.487 247.406C65.6558 247.237 65.7506 247.008 65.7506 246.769C65.7506 246.53 65.6558 246.302 65.487 246.133C65.3182 245.964 65.0893 245.869 64.8506 245.869Z" fill="url(#paint26_linear_349_3409)"/>
<path d="M42.7806 227.695L52.5996 218.335V229.811C52.5996 229.873 52.6061 229.936 52.6189 229.997C52.2967 230.189 52.0466 230.482 51.9069 230.831C51.7672 231.179 51.7457 231.564 51.8457 231.926C51.9456 232.288 52.1615 232.607 52.4603 232.834C52.759 233.062 53.1241 233.185 53.4996 233.185C53.875 233.185 54.2401 233.062 54.5389 232.834C54.8376 232.607 55.0536 232.288 55.1535 231.926C55.2535 231.564 55.232 231.179 55.0923 230.831C54.9526 230.482 54.7025 230.189 54.3802 229.997C54.3931 229.936 54.3996 229.873 54.3996 229.811V218.387L64.2069 228.088C64.2904 228.173 64.3901 228.241 64.5002 228.288C64.6102 228.334 64.7284 228.358 64.8478 228.359C64.9672 228.359 65.0855 228.335 65.1958 228.29C65.3061 228.244 65.4061 228.176 65.4901 228.091C65.5741 228.006 65.6403 227.906 65.6849 227.795C65.7295 227.684 65.7517 227.566 65.75 227.446C65.7484 227.327 65.7229 227.209 65.6753 227.099C65.6276 226.99 65.5586 226.891 65.4723 226.808L54.1323 215.591C53.9659 215.427 53.7419 215.333 53.5078 215.331C53.2738 215.329 53.0481 215.418 52.8786 215.579L41.5386 226.392C41.3684 226.557 41.2704 226.783 41.2658 227.02C41.2612 227.258 41.3505 227.487 41.5142 227.659C41.6779 227.83 41.9028 227.931 42.14 227.937C42.3771 227.944 42.6074 227.857 42.7806 227.695Z" fill="url(#paint27_linear_349_3409)"/>
<defs>
<linearGradient id="paint0_linear_349_3409" x1="399.179" y1="388.474" x2="399.179" y2="412.473" gradientUnits="userSpaceOnUse">
<stop stop-color="#EE2238"/>
<stop offset="1" stop-color="#BF1D67"/>
</linearGradient>
<linearGradient id="paint1_linear_349_3409" x1="396.549" y1="379.08" x2="396.549" y2="401.769" gradientUnits="userSpaceOnUse">
<stop stop-color="#EE2238"/>
<stop offset="1" stop-color="#BF1D67"/>
</linearGradient>
<linearGradient id="paint2_linear_349_3409" x1="249.91" y1="191.446" x2="249.91" y2="248.116" gradientUnits="userSpaceOnUse">
<stop stop-color="#EE2238"/>
<stop offset="1" stop-color="#BF1D67"/>
</linearGradient>
<linearGradient id="paint3_linear_349_3409" x1="219.979" y1="307.593" x2="219.979" y2="321.96" gradientUnits="userSpaceOnUse">
<stop stop-color="#EE2238"/>
<stop offset="1" stop-color="#BF1D67"/>
</linearGradient>
<linearGradient id="paint4_linear_349_3409" x1="278.397" y1="308.291" x2="278.397" y2="321.582" gradientUnits="userSpaceOnUse">
<stop stop-color="#EE2238"/>
<stop offset="1" stop-color="#BF1D67"/>
</linearGradient>
<linearGradient id="paint5_linear_349_3409" x1="249.905" y1="305.772" x2="249.905" y2="315.524" gradientUnits="userSpaceOnUse">
<stop stop-color="#EE2238"/>
<stop offset="1" stop-color="#BF1D67"/>
</linearGradient>
<linearGradient id="paint6_linear_349_3409" x1="438.5" y1="273.146" x2="438.5" y2="300.739" gradientUnits="userSpaceOnUse">
<stop stop-color="#EE2238"/>
<stop offset="1" stop-color="#BF1D67"/>
</linearGradient>
<linearGradient id="paint7_linear_349_3409" x1="335.145" y1="13.4521" x2="335.145" y2="19.5185" gradientUnits="userSpaceOnUse">
<stop stop-color="#EE2238"/>
<stop offset="1" stop-color="#BF1D67"/>
</linearGradient>
<linearGradient id="paint8_linear_349_3409" x1="334.489" y1="40.8574" x2="334.489" y2="45.546" gradientUnits="userSpaceOnUse">
<stop stop-color="#EE2238"/>
<stop offset="1" stop-color="#BF1D67"/>
</linearGradient>
<linearGradient id="paint9_linear_349_3409" x1="320.785" y1="20.3633" x2="320.785" y2="38.6205" gradientUnits="userSpaceOnUse">
<stop stop-color="#EE2238"/>
<stop offset="1" stop-color="#BF1D67"/>
</linearGradient>
<linearGradient id="paint10_linear_349_3409" x1="348.209" y1="20.3477" x2="348.209" y2="38.6505" gradientUnits="userSpaceOnUse">
<stop stop-color="#EE2238"/>
<stop offset="1" stop-color="#BF1D67"/>
</linearGradient>
<linearGradient id="paint11_linear_349_3409" x1="253.295" y1="34.4121" x2="253.295" y2="37.6041" gradientUnits="userSpaceOnUse">
<stop stop-color="#EE2238"/>
<stop offset="1" stop-color="#BF1D67"/>
</linearGradient>
<linearGradient id="paint12_linear_349_3409" x1="248.003" y1="20.9219" x2="248.003" y2="51.0779" gradientUnits="userSpaceOnUse">
<stop stop-color="#EE2238"/>
<stop offset="1" stop-color="#BF1D67"/>
</linearGradient>
<linearGradient id="paint13_linear_349_3409" x1="165.499" y1="14.2305" x2="165.499" y2="44.7845" gradientUnits="userSpaceOnUse">
<stop stop-color="#EE2238"/>
<stop offset="1" stop-color="#BF1D67"/>
</linearGradient>
<linearGradient id="paint14_linear_349_3409" x1="378.512" y1="97.2529" x2="378.512" y2="98.9729" gradientUnits="userSpaceOnUse">
<stop stop-color="#EE2238"/>
<stop offset="1" stop-color="#BF1D67"/>
</linearGradient>
<linearGradient id="paint15_linear_349_3409" x1="378.5" y1="67.9941" x2="378.5" y2="91.3947" gradientUnits="userSpaceOnUse">
<stop stop-color="#EE2238"/>
<stop offset="1" stop-color="#BF1D67"/>
</linearGradient>
<linearGradient id="paint16_linear_349_3409" x1="427.5" y1="110.228" x2="427.5" y2="140.774" gradientUnits="userSpaceOnUse">
<stop stop-color="#EE2238"/>
<stop offset="1" stop-color="#BF1D67"/>
</linearGradient>
<linearGradient id="paint17_linear_349_3409" x1="113.5" y1="69.3252" x2="113.5" y2="95.9784" gradientUnits="userSpaceOnUse">
<stop stop-color="#EE2238"/>
<stop offset="1" stop-color="#BF1D67"/>
</linearGradient>
<linearGradient id="paint18_linear_349_3409" x1="113.075" y1="98.1738" x2="113.075" y2="99.8938" gradientUnits="userSpaceOnUse">
<stop stop-color="#EE2238"/>
<stop offset="1" stop-color="#BF1D67"/>
</linearGradient>
<linearGradient id="paint19_linear_349_3409" x1="436.5" y1="189.753" x2="436.5" y2="221.324" gradientUnits="userSpaceOnUse">
<stop stop-color="#EE2238"/>
<stop offset="1" stop-color="#BF1D67"/>
</linearGradient>
<linearGradient id="paint20_linear_349_3409" x1="448.249" y1="198.559" x2="448.249" y2="212.528" gradientUnits="userSpaceOnUse">
<stop stop-color="#EE2238"/>
<stop offset="1" stop-color="#BF1D67"/>
</linearGradient>
<linearGradient id="paint21_linear_349_3409" x1="424.709" y1="198.559" x2="424.709" y2="212.528" gradientUnits="userSpaceOnUse">
<stop stop-color="#EE2238"/>
<stop offset="1" stop-color="#BF1D67"/>
</linearGradient>
<linearGradient id="paint22_linear_349_3409" x1="80.5713" y1="134.559" x2="80.5713" y2="155.29" gradientUnits="userSpaceOnUse">
<stop stop-color="#EE2238"/>
<stop offset="1" stop-color="#BF1D67"/>
</linearGradient>
<linearGradient id="paint23_linear_349_3409" x1="65.0016" y1="146.43" x2="65.0016" y2="158.423" gradientUnits="userSpaceOnUse">
<stop stop-color="#EE2238"/>
<stop offset="1" stop-color="#BF1D67"/>
</linearGradient>
<linearGradient id="paint24_linear_349_3409" x1="64.9977" y1="131.416" x2="64.9977" y2="143.424" gradientUnits="userSpaceOnUse">
<stop stop-color="#EE2238"/>
<stop offset="1" stop-color="#BF1D67"/>
</linearGradient>
<linearGradient id="paint25_linear_349_3409" x1="49.43" y1="134.557" x2="49.43" y2="155.286" gradientUnits="userSpaceOnUse">
<stop stop-color="#EE2238"/>
<stop offset="1" stop-color="#BF1D67"/>
</linearGradient>
<linearGradient id="paint26_linear_349_3409" x1="53.4998" y1="245.869" x2="53.4998" y2="247.669" gradientUnits="userSpaceOnUse">
<stop stop-color="#EE2238"/>
<stop offset="1" stop-color="#BF1D67"/>
</linearGradient>
<linearGradient id="paint27_linear_349_3409" x1="53.5079" y1="215.331" x2="53.5079" y2="233.185" gradientUnits="userSpaceOnUse">
<stop stop-color="#EE2238"/>
<stop offset="1" stop-color="#BF1D67"/>
</linearGradient>
</defs>
</svg>
